<?xml version="1.0" standalone="no"?>
<!DOCTYPE svg PUBLIC "-//W3C//DTD SVG 20010904//EN"
 "http://www.w3.org/TR/2001/REC-SVG-20010904/DTD/svg10.dtd">
<svg version="1.0" xmlns="http://www.w3.org/2000/svg"
 width="1000.000000pt" height="1000.000000pt" viewBox="0 0 1000.000000 1000.000000"
 preserveAspectRatio="xMidYMid meet">

<g transform="translate(0.000000,1000.000000) scale(0.100000,-0.100000)"
fill="#000000" stroke="none">
<path d="M5861 9059 c-207 -18 -445 -65 -629 -125 -59 -19 -190 -76 -291 -126
l-184 -92 -31 19 c-101 60 -291 149 -384 179 -290 93 -733 118 -1082 60 -191
-32 -373 -107 -475 -196 -24 -21 -48 -38 -53 -38 -13 0 -89 -115 -199 -300
-327 -550 -551 -1077 -688 -1620 -46 -184 -125 -440 -135 -440 -6 1 -38 49
-155 232 -105 166 -147 208 -207 208 -62 0 -125 -35 -203 -114 -111 -112 -164
-242 -152 -373 l6 -62 -57 26 c-95 43 -107 46 -136 39 -48 -12 -109 -84 -129
-151 -61 -212 -60 -434 4 -690 51 -203 164 -415 293 -552 77 -82 213 -182 275
-204 18 -6 30 -14 29 -18 -100 -188 -121 -270 -117 -446 l3 -120 -39 -11
c-134 -41 -311 7 -470 128 -39 29 -98 66 -132 82 -76 36 -135 31 -187 -15 -96
-84 -147 -396 -96 -593 56 -220 198 -420 388 -547 l77 -51 -115 6 c-63 3 -140
12 -170 21 -30 8 -69 15 -87 15 -43 0 -93 -43 -93 -79 0 -16 -5 -43 -12 -61
-8 -25 -8 -52 1 -114 49 -318 226 -561 586 -805 242 -164 663 -365 880 -420
232 -58 474 -55 851 9 159 28 354 76 432 107 35 14 67 21 71 17 5 -5 43 -56
86 -114 277 -371 538 -610 837 -765 377 -195 781 -274 1333 -262 334 7 503 41
698 138 313 157 576 427 855 876 l69 112 44 -30 c120 -82 312 -156 479 -185
132 -23 509 -15 694 15 484 78 753 197 996 441 212 212 347 472 410 785 12 61
28 132 36 159 8 27 14 70 14 94 0 37 -6 50 -34 78 -29 29 -41 34 -83 34 -26 0
-86 -11 -133 -24 -93 -26 -283 -60 -301 -54 -5 2 11 28 38 58 139 160 261 386
329 612 50 167 71 448 40 523 -35 82 -100 88 -249 22 -154 -69 -273 -98 -432
-103 -92 -4 -145 -1 -180 9 -49 13 -50 15 -47 48 1 19 4 97 5 174 2 131 -7
195 -37 275 -5 12 13 20 84 37 183 44 328 122 445 238 83 83 129 155 166 262
72 210 70 476 -8 742 -22 78 -67 121 -124 121 -51 0 -84 -15 -149 -70 l-47
-40 -5 98 c-4 69 -13 120 -32 177 -48 141 -158 295 -239 334 -100 48 -146 20
-228 -136 -53 -102 -146 -260 -182 -307 -14 -18 -15 -17 -29 30 -9 27 -38 123
-66 214 -28 91 -94 323 -146 515 -53 193 -126 448 -162 569 -36 120 -72 258
-80 307 -19 120 -118 370 -192 488 -131 209 -331 375 -629 524 -305 153 -691
226 -1032 196z m381 -244 c279 -37 549 -142 789 -306 115 -79 253 -223 301
-315 71 -134 220 -605 394 -1244 122 -448 201 -712 278 -935 47 -133 62 -166
91 -192 88 -83 210 0 177 119 -9 34 -7 39 63 134 40 54 102 147 137 206 34 60
68 116 74 124 9 14 15 9 42 -33 67 -105 90 -225 71 -374 -7 -55 -17 -103 -23
-108 -6 -4 -41 -18 -78 -30 -37 -13 -81 -35 -98 -51 -61 -57 -26 -140 60 -140
128 0 275 57 415 159 l80 59 9 -26 c5 -15 9 -101 10 -192 1 -145 -2 -175 -22
-245 -31 -107 -66 -169 -134 -236 -96 -95 -317 -189 -444 -189 -36 0 -54 8
-108 49 -141 107 -306 134 -486 79 -87 -27 -272 -115 -359 -172 -162 -105
-240 -231 -181 -294 35 -37 64 -28 133 39 74 73 150 118 315 189 199 84 289
89 409 20 62 -36 155 -143 171 -199 15 -48 16 -238 1 -317 -45 -257 -206 -504
-406 -623 -65 -38 -192 -96 -198 -89 -2 2 -10 20 -19 41 -35 86 -125 57 -126
-42 l0 -34 -94 7 c-108 8 -145 -3 -171 -54 -20 -38 -19 -58 4 -97 20 -31 20
-32 -4 -138 -117 -516 -331 -1067 -570 -1465 -343 -571 -659 -865 -1030 -959
-149 -37 -249 -46 -525 -45 -279 1 -438 15 -633 55 -264 54 -535 176 -752 337
-229 169 -552 546 -759 884 -132 216 -215 404 -326 738 -105 314 -231 628
-265 658 -23 19 -37 22 -123 22 -53 0 -114 3 -135 6 -33 6 -37 10 -37 35 0 79
-117 93 -142 18 -6 -19 -82 0 -197 50 -138 59 -197 98 -286 186 -128 127 -171
237 -169 430 2 165 45 266 159 374 85 80 128 96 260 95 92 0 124 -5 195 -28
113 -37 197 -81 299 -155 85 -62 120 -73 161 -51 28 15 40 69 28 125 -18 84
-120 165 -303 240 -116 48 -236 76 -350 82 -126 6 -209 -12 -317 -69 -75 -40
-80 -41 -116 -29 -70 25 -157 85 -232 161 -171 172 -283 451 -297 746 -7 152
14 301 42 290 7 -2 75 -48 151 -101 204 -142 256 -169 326 -170 68 0 101 24
101 74 0 54 -44 104 -155 173 l-102 63 -19 70 c-10 39 -19 102 -20 141 -1 59
3 79 28 127 43 86 135 164 135 115 0 -7 50 -106 112 -221 122 -227 176 -300
236 -316 56 -16 131 6 156 45 40 60 169 434 226 654 153 590 367 1091 698
1630 159 259 154 255 322 312 294 100 806 101 1146 2 83 -24 208 -80 363 -163
133 -71 207 -64 386 39 246 142 509 219 865 253 92 9 296 5 392 -8z m-5613
-4795 c182 -108 401 -137 553 -71 l45 19 20 -42 c49 -99 158 -218 273 -296
104 -70 278 -147 408 -180 23 -6 42 -15 42 -21 0 -16 -39 -171 -51 -200 -16
-40 -67 -85 -130 -113 -82 -38 -207 -68 -252 -61 -31 4 -42 1 -62 -19 -45 -45
-27 -76 68 -120 204 -94 238 -160 238 -456 1 -188 6 -210 54 -210 37 0 54 23
100 133 77 191 168 318 256 360 20 9 62 19 95 23 80 8 113 22 120 50 12 46 -4
68 -92 124 -143 91 -234 194 -234 264 0 13 9 64 20 113 l21 88 124 0 125 0 11
-35 c7 -19 38 -100 69 -180 32 -80 83 -227 114 -327 91 -297 191 -536 306
-737 28 -48 50 -89 48 -91 -10 -8 -302 -78 -398 -95 -403 -72 -630 -67 -885
17 -138 46 -547 249 -678 337 -280 187 -424 353 -503 581 l-32 91 167 -4 c92
-3 203 0 247 6 99 14 210 48 232 71 51 54 72 86 72 108 0 35 -46 76 -110 100
-30 11 -90 32 -133 48 -287 102 -492 398 -474 681 3 44 11 101 17 126 l12 47
53 -44 c30 -24 85 -62 124 -85z m8619 43 c-20 -192 -107 -418 -233 -608 -62
-92 -144 -179 -247 -261 -94 -75 -97 -79 -98 -142 0 -68 11 -87 63 -113 76
-39 333 -36 535 6 l64 13 -7 -44 c-21 -143 -109 -357 -205 -500 -70 -102 -203
-240 -293 -302 -246 -170 -614 -265 -1072 -279 -228 -6 -317 5 -476 58 -82 27
-249 103 -249 113 0 2 32 70 71 152 143 302 292 718 374 1049 25 99 45 188 45
197 0 13 8 18 28 18 15 0 43 3 62 6 l35 5 23 -71 22 -72 -44 -49 c-46 -51 -76
-121 -75 -173 0 -17 8 -73 18 -125 28 -142 62 -156 150 -62 31 33 66 62 77 65
33 10 69 -12 94 -56 19 -34 22 -51 18 -102 -3 -34 -13 -77 -23 -95 -16 -32
-19 -33 -60 -28 -32 3 -61 17 -106 51 -35 25 -71 46 -82 46 -59 0 -80 -49 -67
-156 17 -130 82 -218 184 -245 57 -16 180 -5 249 21 119 45 227 182 263 336
41 176 -25 408 -145 503 -80 64 -271 135 -316 117 -9 -3 -16 13 -24 58 -6 34
-11 65 -11 68 0 3 19 11 43 18 23 7 78 30 122 52 216 109 337 226 460 445 l56
100 38 -13 c153 -53 452 -32 656 44 44 17 83 31 86 31 3 1 2 -34 -3 -76z
m-1294 -908 c108 -51 149 -102 181 -226 46 -174 -39 -377 -174 -418 -68 -20
-148 -17 -179 6 -32 24 -43 50 -16 35 68 -35 153 -23 204 28 67 67 94 252 49
350 -62 137 -167 167 -323 92 -14 -7 2 77 19 102 8 11 32 31 53 44 47 30 105
26 186 -13z m-5949 -135 c16 -23 51 -60 79 -82 28 -23 55 -45 59 -49 5 -3 -11
-18 -35 -32 -43 -25 -139 -120 -169 -167 l-16 -25 -12 53 c-15 72 -54 145
-102 193 -22 22 -39 42 -37 43 2 1 24 10 51 20 26 10 69 33 95 51 26 18 50 33
53 34 4 1 19 -17 34 -39z"/>
<path d="M5879 6246 c-90 -19 -170 -62 -260 -139 -130 -111 -219 -240 -269
-388 -96 -282 -104 -841 -19 -1334 24 -144 46 -231 105 -427 24 -82 44 -156
44 -167 0 -10 6 -36 14 -57 7 -22 17 -72 21 -111 l7 -71 -59 1 c-62 0 -99 -14
-153 -60 -39 -32 -90 -135 -90 -180 0 -30 -2 -32 -47 -40 -57 -9 -184 -9 -234
1 -33 6 -37 10 -43 44 -8 50 -71 130 -126 160 -39 20 -54 23 -112 19 l-66 -6
-12 51 c-8 31 -10 76 -6 118 6 61 5 71 -13 89 -28 28 -47 26 -76 -5 -35 -38
-50 -96 -50 -189 1 -69 5 -90 32 -148 37 -77 109 -159 180 -201 48 -29 48 -30
50 -85 4 -145 114 -287 231 -299 63 -6 101 23 109 85 5 38 2 45 -26 74 -30 29
-36 31 -82 26 -49 -6 -49 -6 -69 33 -25 49 -27 95 -4 86 9 -3 58 -11 109 -18
88 -10 189 -4 298 19 26 5 27 4 27 -39 0 -59 -21 -89 -58 -79 -42 11 -69 2
-97 -30 -55 -67 -17 -159 66 -159 50 0 93 19 148 67 66 56 85 102 86 210 l1
92 62 41 c72 48 112 96 149 176 22 50 27 72 27 149 0 97 -22 191 -54 236 -10
14 -26 66 -35 115 -9 49 -32 148 -50 219 -71 267 -105 564 -105 906 0 387 38
609 132 767 42 71 188 217 259 259 82 49 184 67 349 60 150 -6 219 -21 327
-73 137 -65 222 -166 328 -388 45 -94 60 -115 89 -131 35 -19 36 -19 63 2 24
18 28 27 27 69 0 39 -12 72 -56 161 -147 293 -287 410 -566 474 -115 26 -406
35 -503 15z"/>
<path d="M3811 6179 c-88 -15 -231 -67 -311 -112 -50 -28 -108 -75 -176 -142
-84 -82 -108 -114 -140 -179 -33 -67 -40 -92 -42 -156 -4 -69 -2 -79 20 -104
34 -40 53 -26 88 67 54 146 79 187 169 277 99 99 193 153 336 195 108 32 243
36 348 11 204 -48 378 -226 412 -421 14 -84 27 -105 61 -105 41 0 57 39 52
129 -4 63 -11 93 -40 152 -91 190 -235 314 -428 369 -87 24 -265 34 -349 19z"/>
<path d="M6225 4999 c-175 -22 -390 -108 -469 -186 -85 -84 -107 -152 -56
-168 24 -7 113 32 231 101 42 24 78 44 81 44 2 0 0 -22 -6 -49 -21 -104 34
-223 124 -268 86 -44 211 -22 277 49 67 71 90 220 47 306 l-21 42 81 0 c102 0
239 -24 325 -56 72 -27 106 -25 114 6 13 49 -96 120 -237 155 -135 33 -338 43
-491 24z"/>
<path d="M3710 4943 c-94 -6 -208 -25 -275 -45 -154 -45 -260 -121 -234 -169
15 -29 38 -29 116 3 97 38 237 68 325 68 l67 0 -14 -41 c-8 -23 -15 -70 -15
-104 0 -82 46 -177 105 -217 182 -124 405 27 364 246 -5 27 -7 51 -5 53 2 2
44 -16 92 -40 49 -24 118 -55 153 -68 l64 -23 18 23 c25 30 12 62 -53 127
-129 132 -416 208 -708 187z"/>
<path d="M7940 4769 c-76 -38 -303 -275 -392 -409 -82 -124 -149 -251 -167
-315 -28 -102 -2 -178 64 -191 52 -9 79 13 104 88 12 35 43 100 71 146 113
187 229 319 387 440 96 72 124 109 130 165 4 36 1 46 -21 66 -38 35 -116 40
-176 10z"/>
<path d="M1710 4593 c-58 -18 -88 -60 -75 -105 4 -13 31 -48 59 -78 112 -117
174 -215 296 -466 71 -148 95 -176 165 -195 39 -11 88 7 99 36 12 32 6 105
-14 157 -27 72 -138 273 -215 388 -116 175 -247 284 -315 263z"/>
<path d="M8004 4196 c-56 -48 -20 -146 53 -146 34 0 93 60 93 94 0 67 -91 100
-146 52z"/>
<path d="M3006 4158 c-76 -69 -154 -239 -126 -273 33 -40 103 9 181 127 63 97
68 111 43 146 -20 29 -65 29 -98 0z"/>
<path d="M6792 4173 c-33 -13 -33 -52 0 -136 46 -121 120 -188 158 -142 20 24
6 114 -29 183 -42 83 -83 113 -129 95z"/>
<path d="M1554 4098 c-47 -22 -57 -95 -19 -133 45 -46 143 -28 165 31 28 73
-68 140 -146 102z"/>
<path d="M3206 4085 c-40 -43 -89 -152 -94 -209 -4 -47 -2 -55 17 -65 25 -14
44 -5 83 36 35 37 80 135 86 188 4 36 1 45 -19 59 -32 22 -46 20 -73 -9z"/>
<path d="M6642 4088 c-19 -19 -14 -62 14 -133 24 -59 70 -115 95 -115 17 0 49
40 49 62 0 29 -44 116 -82 162 -30 37 -55 45 -76 24z"/>
<path d="M7819 3985 c-33 -18 -52 -66 -39 -100 30 -78 160 -47 160 38 0 59
-67 93 -121 62z"/>
<path d="M1775 3911 c-91 -39 -71 -171 27 -171 80 0 126 103 69 154 -22 20
-70 28 -96 17z"/>
<path d="M5674 2578 c-26 -24 -77 -83 -114 -133 -122 -164 -224 -248 -345
-280 -141 -38 -370 2 -525 92 -61 36 -174 139 -252 232 -38 44 -62 50 -81 19
-28 -44 58 -188 167 -279 85 -71 241 -151 351 -180 59 -16 112 -22 205 -23
111 -1 133 2 197 25 148 54 284 172 402 350 69 103 99 174 84 198 -18 29 -41
23 -89 -21z"/>
</g>
</svg>
