<?xml version="1.0" standalone="no"?>
<!DOCTYPE svg PUBLIC "-//W3C//DTD SVG 20010904//EN"
 "http://www.w3.org/TR/2001/REC-SVG-20010904/DTD/svg10.dtd">
<svg version="1.0" xmlns="http://www.w3.org/2000/svg"
 width="1250.000000pt" height="1250.000000pt" viewBox="0 0 1250.000000 1250.000000"
 preserveAspectRatio="xMidYMid meet">

<g transform="translate(0.000000,1250.000000) scale(0.100000,-0.100000)"
fill="#000000" stroke="none">
<path d="M6625 11700 c-99 -4 -731 -5 -1405 -2 -1070 3 -1969 -6 -2105 -23
-16 -2 -253 -7 -527 -11 -458 -7 -499 -6 -532 10 -51 24 -158 31 -257 16 -46
-6 -167 -15 -269 -20 -195 -8 -217 -13 -327 -68 -110 -56 -157 -111 -189 -218
-15 -52 -17 -118 -19 -554 -1 -319 -7 -589 -18 -760 -26 -430 -32 -634 -31
-1031 1 -265 5 -382 13 -397 8 -14 8 -22 1 -22 -15 0 -14 -292 2 -308 9 -9 9
-12 -1 -12 -8 0 -12 -19 -10 -67 2 -81 19 -117 52 -108 17 5 19 4 7 -4 -8 -6
-22 -11 -32 -11 -14 0 -16 -16 -18 -132 -1 -73 -3 -146 -5 -163 -1 -16 -6
-158 -10 -315 -4 -157 -9 -301 -11 -320 -1 -19 -6 -191 -10 -382 l-7 -348 29
0 c31 -1 64 -20 64 -39 0 -14 -3 -14 -47 4 -20 8 -38 14 -40 12 -4 -5 15 -501
23 -574 4 -38 10 -53 20 -53 8 0 12 -5 9 -10 -4 -6 -11 -7 -17 -4 -8 5 -9 -18
-5 -77 4 -46 12 -223 18 -394 12 -337 8 -648 -18 -1185 -21 -442 -25 -1571 -5
-1577 6 -3 12 -9 12 -14 0 -6 -4 -7 -10 -4 -7 4 -10 -114 -10 -347 0 -194 -5
-482 -11 -639 -25 -600 32 -811 244 -910 154 -71 600 -102 1017 -70 212 16
411 14 500 -5 63 -14 106 -15 270 -8 278 12 1179 5 2725 -20 219 -3 358 0 515
11 177 13 373 16 1105 14 2770 -7 2906 -7 2918 9 10 13 64 16 347 18 394 5
449 10 548 57 135 64 219 170 241 306 12 70 15 212 5 222 -4 3 -7 30 -8 59 -1
29 -6 62 -11 72 -6 15 -5 17 5 11 10 -6 12 92 7 546 -4 305 -11 689 -17 854
-5 175 -7 656 -3 1153 5 711 4 855 -7 862 -11 7 -11 12 -2 23 8 9 10 44 7 108
-14 284 -28 1724 -30 3249 -2 954 -6 1764 -8 1800 -17 222 -18 420 -1 560 30
264 25 801 -9 822 -6 4 -18 1 -26 -5 -11 -10 -13 -9 -9 3 3 8 15 15 27 14 17
0 21 5 21 32 0 18 -6 34 -12 37 -10 3 -10 7 0 20 24 28 -9 116 -61 164 -95 88
-369 130 -742 115 -104 -4 -224 -7 -265 -6 -41 1 -498 5 -1015 8 -517 4 -1041
12 -1165 18 -265 12 -1157 18 -1415 8z m-2235 -40 c-8 -5 -19 -10 -25 -10 -5
0 -3 5 5 10 8 5 20 10 25 10 6 0 3 -5 -5 -10z m4290 -124 c0 -20 -47 -26 -62
-8 -11 13 -9 15 15 10 15 -3 30 -1 33 3 8 13 14 11 14 -5z m-42 -90 c48 -23
53 -31 17 -31 -14 0 -25 6 -25 13 0 12 -12 16 -37 13 -7 -1 -13 5 -13 14 0 9
3 15 8 13 4 -1 26 -12 50 -22z m-6468 -27 c264 -7 542 -6 940 2 311 7 903 10
1315 8 935 -4 2013 -3 2725 2 432 3 612 0 870 -14 248 -13 486 -17 1010 -17
377 0 780 -5 895 -10 125 -7 348 -8 551 -4 329 7 505 -2 544 -26 7 -4 16 -54
22 -131 6 -68 16 -139 24 -158 17 -41 18 -248 3 -431 -22 -258 -28 -4558 -7
-4571 6 -4 6 -9 -2 -14 -9 -6 -11 -87 -5 -359 7 -306 10 -352 24 -363 14 -10
14 -12 1 -13 -13 0 -15 -163 -14 -1408 1 -896 5 -1487 12 -1627 7 -121 12
-313 12 -426 0 -189 -2 -211 -21 -255 -21 -46 -21 -54 -10 -173 6 -69 14 -194
18 -276 7 -178 -1 -206 -70 -246 -41 -23 -50 -24 -322 -30 -154 -4 -338 -13
-410 -20 -132 -14 -574 -15 -2965 -8 -682 2 -871 0 -1090 -14 -238 -15 -367
-16 -1285 -7 -561 6 -1074 15 -1140 20 -173 12 -562 12 -690 -1 -60 -7 -195
-13 -300 -15 -104 -2 -320 -9 -480 -15 -408 -17 -696 -16 -825 4 -227 35 -259
50 -285 140 -27 95 -35 284 -24 547 7 152 9 454 5 800 -11 879 -7 1360 11
1849 24 611 23 1243 -1 1706 -11 198 -21 362 -22 364 -2 2 -10 -2 -19 -9 -9
-7 -18 -10 -22 -7 -3 4 6 16 21 28 17 13 25 27 21 37 -10 27 -6 671 7 907 8
148 12 624 13 1340 1 611 5 1156 9 1213 7 83 6 102 -5 102 -10 0 -11 2 -2 8 7
4 13 56 17 142 3 74 11 216 17 315 6 99 9 371 7 605 -3 393 -2 428 15 453 35
54 65 61 272 68 105 3 206 4 225 2 19 -3 204 -9 410 -14z m9070 -190 c-54 -8
-70 -1 -38 15 17 9 31 10 53 2 l30 -10 -45 -7z m-10210 -769 c0 -5 -4 -10 -10
-10 -5 0 -10 5 -10 10 0 6 5 10 10 10 6 0 10 -4 10 -10z m10215 -750 c-3 -5
-18 -10 -33 -9 l-27 1 25 8 c35 11 42 11 35 0z m-10195 -1141 c0 -16 -13 -39
-21 -39 -5 0 -9 11 -9 23 0 14 6 24 15 24 8 0 15 -4 15 -8z m9 -243 l23 -25
-23 6 c-23 6 -39 20 -39 36 0 14 17 7 39 -17z m-54 -56 c-3 -5 -11 -10 -16
-10 -6 0 -7 5 -4 10 3 6 11 10 16 10 6 0 7 -4 4 -10z m-5 -120 c0 -5 -7 -10
-15 -10 -8 0 -15 5 -15 10 0 6 7 10 15 10 8 0 15 -4 15 -10z m76 -47 c-10 -10
-19 5 -10 18 6 11 8 11 12 0 2 -7 1 -15 -2 -18z m-56 -63 c0 -5 -5 -10 -11
-10 -5 0 -7 5 -4 10 3 6 8 10 11 10 2 0 4 -4 4 -10z m-10 -970 c0 -5 -5 -10
-11 -10 -5 0 -7 5 -4 10 3 6 8 10 11 10 2 0 4 -4 4 -10z m10244 -1589 c3 -4
-6 -6 -19 -3 -14 2 -25 6 -25 8 0 8 39 4 44 -5z m6 -871 c0 -5 -4 -10 -10 -10
-5 0 -10 5 -10 10 0 6 5 10 10 10 6 0 10 -4 10 -10z m-110 -610 c0 -5 -2 -10
-4 -10 -3 0 -8 5 -11 10 -3 6 -1 10 4 10 6 0 11 -4 11 -10z m-10053 -556 c-3
-3 -12 -4 -19 -1 -8 3 -5 6 6 6 11 1 17 -2 13 -5z m10196 -101 c-7 -2 -19 -2
-25 0 -7 3 -2 5 12 5 14 0 19 -2 13 -5z m-28 -373 c3 -5 1 -10 -4 -10 -6 0
-11 5 -11 10 0 6 2 10 4 10 3 0 8 -4 11 -10z m-10225 -1041 c0 -5 -7 -9 -15
-9 -15 0 -20 12 -9 23 8 8 24 -1 24 -14z m10260 -593 c0 -3 -4 -8 -10 -11 -5
-3 -10 -1 -10 4 0 6 5 11 10 11 6 0 10 -2 10 -4z m-4 -88 c5 -7 2 -9 -8 -5 -9
3 -21 0 -27 -6 -7 -7 -11 -7 -11 -1 0 24 33 33 46 12z m15 -51 c-8 -8 -11 -7
-11 4 0 20 13 34 18 19 3 -7 -1 -17 -7 -23z m-71 -18 c-54 -8 -70 -1 -38 15
17 9 31 10 53 2 l30 -10 -45 -7z m-3430 -353 c0 -3 -4 -8 -10 -11 -5 -3 -10
-1 -10 4 0 6 5 11 10 11 6 0 10 -2 10 -4z m-743 -152 c-3 -3 -12 -4 -19 -1 -8
3 -5 6 6 6 11 1 17 -2 13 -5z m363 -24 c0 -5 -9 -10 -20 -10 -11 0 -20 5 -20
10 0 6 9 10 20 10 11 0 20 -4 20 -10z"/>
<path d="M7016 11009 c-192 -18 -415 -64 -601 -123 -44 -14 -157 -65 -252
-112 l-172 -87 -81 47 c-100 58 -161 84 -179 78 -8 -2 -11 0 -7 6 14 22 -211
88 -406 119 -146 23 -563 25 -648 4 -30 -8 -62 -14 -70 -14 -8 0 -23 -7 -33
-15 -12 -11 -21 -12 -28 -5 -21 21 -209 -37 -304 -92 -25 -15 -67 -47 -94 -71
-26 -24 -51 -41 -54 -38 -6 6 -106 -142 -158 -232 -169 -293 -220 -385 -284
-515 -48 -96 -73 -159 -70 -171 4 -12 1 -18 -8 -18 -10 0 -31 -41 -60 -112
-41 -102 -44 -114 -29 -125 15 -12 14 -13 -1 -13 -9 0 -23 -10 -31 -22 -27
-44 -154 -444 -205 -646 -48 -188 -94 -338 -110 -354 -3 -4 -33 36 -66 88
-199 313 -215 330 -294 320 -61 -8 -118 -44 -184 -115 -95 -104 -147 -242
-132 -354 4 -27 3 -47 -1 -44 -5 2 -40 19 -77 36 -60 28 -73 31 -101 21 -40
-13 -90 -63 -110 -110 -25 -61 -46 -215 -46 -339 0 -438 220 -865 526 -1021
38 -19 71 -36 73 -37 2 -1 -15 -39 -37 -85 -54 -110 -76 -220 -70 -350 4 -88
3 -100 -13 -109 -33 -17 -136 -22 -201 -10 -56 11 -205 73 -218 91 -3 3 -30
25 -60 47 -158 117 -261 115 -322 -8 -69 -135 -90 -347 -49 -503 55 -207 187
-392 366 -512 l70 -46 -100 5 c-55 3 -133 13 -173 22 -78 18 -107 16 -141 -13
-41 -32 -46 -185 -12 -317 57 -215 189 -395 419 -573 132 -101 249 -172 462
-278 397 -198 564 -242 879 -231 118 4 218 14 345 36 185 32 425 90 484 118
18 9 34 14 36 12 2 -2 40 -53 85 -114 166 -225 396 -461 576 -591 107 -77 350
-199 491 -248 123 -42 289 -80 444 -101 154 -21 563 -31 710 -16 124 12 307
50 367 76 249 107 418 234 607 454 128 149 188 233 352 498 13 21 14 21 81
-23 84 -55 250 -121 368 -145 285 -60 790 -14 1137 102 329 110 604 353 767
677 55 109 94 228 126 386 15 71 31 140 36 153 5 13 9 44 9 69 0 35 -6 50 -29
75 -41 42 -78 45 -196 15 -98 -24 -262 -56 -293 -56 -11 0 -5 12 19 38 120
126 242 341 309 542 48 144 64 241 65 398 l0 143 -37 35 c-50 45 -76 44 -201
-10 -56 -24 -133 -53 -172 -65 -145 -42 -325 -51 -428 -21 -34 10 -38 14 -32
33 4 12 9 78 12 147 4 103 2 140 -15 210 -11 47 -20 85 -19 86 1 0 39 10 85
22 385 101 584 331 617 713 11 126 -21 353 -67 476 -39 106 -124 121 -227 40
l-57 -44 -11 96 c-6 53 -21 125 -33 161 -45 135 -170 292 -253 319 -74 25
-115 -5 -177 -130 -69 -137 -180 -313 -191 -302 -11 12 -119 367 -184 608 -71
264 -165 596 -211 742 -19 62 -38 143 -43 180 -10 77 -73 258 -133 380 -84
170 -232 331 -415 450 -108 71 -333 185 -350 179 -7 -3 -13 -2 -13 3 0 9 -109
50 -202 75 -178 50 -453 73 -642 55z m-1926 -193 c0 -9 -14 -14 -45 -14 -50
-1 -57 4 -22 18 34 13 67 12 67 -4z m418 -24 c3 -10 -10 -11 -46 -3 -2 1 0 6
3 12 9 13 37 8 43 -9z m72 14 c0 -2 -11 -6 -25 -8 -13 -3 -22 -1 -19 3 5 9 44
13 44 5z m-177 -13 c-7 -2 -19 -2 -25 0 -7 3 -2 5 12 5 14 0 19 -2 13 -5z
m2084 -29 c154 -31 265 -69 418 -144 162 -79 264 -148 365 -247 46 -46 88 -83
92 -83 5 0 8 -9 8 -19 0 -11 5 -23 10 -26 52 -32 246 -631 430 -1325 87 -327
219 -753 276 -889 26 -62 61 -91 111 -91 74 0 116 62 97 139 -9 33 -7 40 32
92 58 77 180 265 205 316 11 24 24 43 29 43 13 0 77 -133 90 -189 13 -54 9
-240 -5 -288 -5 -16 -24 -28 -74 -44 -110 -36 -143 -71 -127 -135 11 -44 56
-55 161 -38 105 17 213 66 318 145 37 28 70 50 72 48 12 -13 23 -226 15 -304
-16 -156 -51 -244 -128 -328 -92 -99 -254 -177 -405 -196 -70 -8 -73 -8 -102
19 -132 120 -319 155 -502 94 -87 -29 -307 -142 -373 -192 -117 -89 -169 -193
-121 -241 34 -34 58 -26 133 44 55 52 94 78 191 124 175 85 238 105 327 105
66 1 82 -3 136 -32 62 -34 135 -107 170 -172 29 -53 26 -284 -5 -395 -25 -89
-82 -213 -135 -293 -20 -30 -36 -60 -36 -68 0 -8 -6 -14 -12 -14 -7 -1 -31
-19 -53 -41 -64 -64 -266 -179 -316 -179 -4 0 -10 14 -14 30 -4 17 -18 38 -31
47 -45 29 -94 -14 -94 -83 l0 -24 -101 2 -100 3 -30 -33 c-32 -36 -36 -63 -14
-106 21 -40 20 -51 -25 -234 -101 -413 -284 -881 -475 -1212 -277 -482 -543
-769 -839 -906 -155 -71 -354 -104 -633 -104 -559 0 -944 104 -1296 350 -109
76 -338 301 -453 445 -301 375 -455 660 -599 1109 -71 221 -213 575 -242 604
-19 19 -33 22 -100 22 -43 0 -102 3 -130 6 -50 6 -53 8 -53 35 0 36 -32 69
-65 69 -25 0 -65 -31 -65 -50 0 -18 -41 -10 -147 30 -176 66 -301 156 -384
276 -67 97 -99 254 -81 386 16 111 58 193 140 277 57 57 76 70 129 86 160 47
407 -24 602 -173 61 -46 84 -56 115 -48 57 14 70 111 26 184 -55 90 -318 213
-520 243 -144 21 -290 -6 -386 -70 -35 -24 -54 -31 -73 -26 -58 14 -160 82
-232 154 -162 162 -269 423 -286 697 -6 97 9 244 27 274 9 15 1 20 163 -93
168 -117 246 -157 303 -157 52 0 94 33 94 73 0 42 -54 102 -137 153 -109 66
-110 68 -127 145 -32 139 -15 229 60 318 48 57 60 58 87 4 69 -141 185 -354
214 -395 59 -82 128 -107 208 -74 40 17 40 18 100 176 26 69 58 153 71 186 13
34 50 164 83 290 33 126 65 242 71 259 6 16 9 40 5 52 -3 14 -1 22 6 21 6 -2
35 66 64 150 124 352 299 708 544 1102 92 148 108 168 162 196 44 22 198 68
309 92 40 8 41 10 15 12 l-30 2 30 8 c48 12 97 12 89 -1 -4 -8 35 -9 137 -4
237 11 518 -26 707 -93 61 -22 82 -26 82 -16 0 17 12 18 28 2 10 -10 17 -10
34 1 17 11 22 11 29 0 6 -11 14 -11 39 -2 28 10 30 10 30 -10 0 -21 -4 -22
-67 -19 l-68 3 90 -52 c188 -107 240 -107 436 4 163 92 250 127 429 172 303
76 596 89 847 39z m-2292 10 c-144 -18 -332 -26 -339 -16 -3 5 12 9 32 10 20
0 82 5 137 10 55 4 141 9 190 9 l90 1 -110 -14z m-627 -41 c-16 -2 -28 -8 -28
-12 0 -4 -12 -6 -27 -5 -16 1 -48 2 -73 4 -74 3 -9 18 80 18 41 -1 63 -3 48
-5z m1142 -3 c11 -7 7 -10 -18 -10 -20 0 -31 4 -27 10 8 13 26 13 45 0z
m-2140 -1200 c0 -5 -4 -10 -10 -10 -5 0 -10 5 -10 10 0 6 5 10 10 10 6 0 10
-4 10 -10z m6497 -1266 c-3 -3 -12 -4 -19 -1 -8 3 -5 6 6 6 11 1 17 -2 13 -5z
m-972 -44 c4 -6 16 -8 28 -5 12 4 30 9 40 11 9 3 17 1 17 -5 0 -6 -11 -11 -24
-11 -14 0 -31 -6 -38 -13 -7 -8 -19 -12 -27 -9 -7 2 -17 -2 -23 -9 -7 -12 -9
-11 -7 1 3 29 -1 39 -18 43 -10 3 -4 5 14 6 17 0 35 -4 38 -9z m-6907 -22 c16
-16 15 -28 -2 -28 -17 0 -38 24 -29 33 9 10 17 9 31 -5z m83 -8 c5 0 9 -4 9
-9 0 -4 -11 -6 -25 -3 -14 2 -25 9 -25 14 0 6 7 7 16 4 9 -3 20 -6 25 -6z
m7659 -830 c0 -5 -2 -10 -4 -10 -3 0 -8 5 -11 10 -3 6 -1 10 4 10 6 0 11 -4
11 -10z m-6935 -390 c-3 -5 -11 -10 -16 -10 -6 0 -7 5 -4 10 3 6 11 10 16 10
6 0 7 -4 4 -10z m-1037 -614 c-4 -17 -1 -23 9 -19 19 7 16 -23 -4 -47 -22 -25
-46 -27 -40 -2 3 9 8 34 12 55 3 20 11 37 17 37 6 0 8 -11 6 -24z m8252 -16
c0 -22 -4 -28 -15 -24 -8 3 -24 -1 -37 -10 -12 -9 -18 -16 -13 -16 6 0 4 -4
-4 -9 -8 -5 -11 -16 -6 -30 3 -12 10 -19 15 -16 5 3 11 1 15 -5 3 -5 1 -10 -5
-10 -6 0 -5 -9 4 -23 16 -24 13 -31 -21 -60 -18 -16 -25 -17 -45 -6 -13 6 -26
17 -30 23 -5 7 -8 4 -8 -7 0 -13 -7 -18 -22 -17 -41 4 -55 -1 -33 -10 16 -7
17 -9 3 -9 -9 -1 -20 4 -23 9 -4 7 -12 7 -24 0 -14 -7 -24 -3 -42 17 -16 17
-20 27 -12 30 7 2 10 10 7 17 -3 7 9 25 25 39 34 28 40 40 16 31 -9 -4 -15 0
-15 10 0 9 -7 16 -16 16 -9 0 -14 5 -12 12 2 6 33 17 67 24 35 7 86 21 114 30
38 13 51 14 57 4 8 -13 50 -5 50 11 0 5 2 9 5 9 3 0 5 -13 5 -30z m-8154 -27
c25 -16 44 -36 44 -45 0 -22 -28 -24 -37 -2 -4 12 -8 13 -14 3 -12 -20 -1 -30
34 -30 59 0 102 -6 142 -19 55 -17 58 -20 44 -37 -11 -12 -9 -13 13 -8 15 4
29 2 32 -4 4 -6 1 -11 -6 -11 -8 0 -14 -9 -14 -21 0 -17 5 -19 36 -15 19 3 36
5 36 6 1 0 5 7 8 16 5 13 1 15 -21 11 l-28 -6 30 14 c35 17 62 19 70 6 3 -6
18 -16 34 -24 27 -14 30 -13 41 9 14 25 51 38 81 29 20 -7 26 -40 8 -50 -6 -4
-8 -13 -5 -20 6 -17 -10 -30 -46 -39 -21 -5 -26 -3 -22 8 8 20 -12 29 -28 13
-7 -7 -21 -16 -30 -20 -20 -7 -23 -24 -8 -47 7 -12 12 -12 22 -2 22 22 34 13
34 -25 0 -25 -6 -42 -18 -51 -10 -7 -18 -19 -18 -26 0 -25 26 -66 45 -73 33
-11 45 -12 39 -1 -3 5 2 18 12 29 18 20 18 21 1 30 -10 6 -15 14 -12 20 4 5
-1 16 -9 25 -9 9 -13 20 -10 26 4 7 2 8 -5 4 -9 -6 -10 0 -6 21 12 51 14 55
34 48 11 -3 22 -1 26 5 10 17 25 11 25 -10 0 -14 5 -18 17 -13 13 5 15 3 9
-13 -6 -15 -5 -17 5 -6 7 6 21 12 30 12 10 0 19 5 21 11 2 5 21 14 43 19 31 7
43 6 55 -5 12 -13 12 -15 -1 -15 -9 0 -21 -11 -27 -25 -9 -20 -8 -26 5 -33 12
-7 13 -11 2 -17 -7 -5 -14 -4 -17 3 -2 7 -17 12 -33 12 -16 0 -29 4 -29 10 0
5 -7 7 -16 3 -9 -3 -14 -13 -11 -24 3 -10 -2 -20 -10 -23 -8 -3 -11 -11 -7
-17 5 -9 -2 -10 -24 -6 -19 4 -32 2 -32 -3 0 -6 8 -10 18 -10 10 0 23 -5 30
-12 9 -9 12 -9 12 0 0 7 7 12 15 12 8 0 15 -4 15 -10 0 -5 -4 -10 -10 -10 -20
0 -9 -27 15 -38 28 -13 55 -16 55 -6 0 3 -7 13 -16 21 -8 9 -12 19 -7 22 4 3
10 15 11 26 4 20 19 35 36 35 4 0 6 -7 3 -15 -4 -8 6 -24 23 -39 l29 -24 -23
-25 c-21 -23 -30 -25 -72 -21 -34 3 -52 0 -65 -12 -10 -9 -23 -13 -30 -8 -9 5
-10 2 -6 -9 9 -23 -5 -21 -33 3 -27 24 -58 23 -74 -2 -14 -22 -1 -34 19 -18
18 15 34 5 17 -12 -15 -15 -101 -27 -108 -16 -3 5 -14 2 -25 -8 -18 -16 -18
-18 -1 -30 24 -19 40 -17 47 5 11 35 87 3 105 -45 5 -13 17 -24 27 -24 16 -1
16 -2 -1 -12 -14 -8 -24 -8 -39 1 -11 8 -16 8 -12 2 3 -6 1 -11 -4 -11 -19 0
-12 -22 9 -27 11 -3 23 -17 26 -32 3 -14 8 -32 10 -39 8 -27 -8 -32 -36 -12
-15 11 -33 20 -38 20 -18 0 -24 18 -13 39 13 23 -17 55 -43 45 -12 -4 -16 -1
-14 12 0 11 0 27 0 36 -3 24 -32 12 -32 -13 0 -23 -21 -69 -31 -69 -21 0 -97
45 -92 53 4 6 0 8 -8 5 -8 -3 -25 0 -38 7 -20 10 -21 13 -7 18 9 4 16 13 16
22 0 8 3 14 8 14 4 -1 12 0 17 1 6 1 28 3 49 4 36 1 67 26 33 26 -9 0 -18 -6
-21 -12 -5 -10 -7 -10 -12 0 -3 6 -15 12 -25 12 -11 0 -17 5 -14 10 3 6 0 10
-7 11 -10 0 -10 2 0 6 15 6 16 35 1 50 -16 16 -1 36 22 30 11 -3 19 0 19 5 0
6 8 4 18 -4 30 -27 65 -27 91 0 l24 24 -24 -6 -24 -7 23 14 c21 12 22 15 7 27
-8 7 -18 10 -21 7 -3 -3 -17 -2 -30 3 -27 11 -54 4 -54 -14 0 -6 -4 -17 -9
-25 -7 -11 -15 -10 -42 9 -19 13 -35 24 -36 24 -1 1 3 23 9 49 6 30 14 45 21
41 7 -3 1 3 -13 15 -41 33 -71 36 -92 9 -27 -35 -22 -52 22 -71 45 -19 48 -27
20 -52 -11 -10 -22 -26 -26 -37 -3 -11 -12 -17 -19 -14 -9 3 -12 0 -9 -9 5
-12 12 -13 54 -3 9 2 14 -3 12 -14 -1 -9 2 -19 8 -23 15 -9 12 -36 -9 -77
l-18 -37 -31 23 c-17 12 -43 34 -57 49 -25 25 -26 26 -7 36 11 6 22 7 26 4 3
-3 6 1 6 10 0 13 -6 15 -30 10 -27 -5 -30 -3 -23 13 3 11 11 22 17 26 6 4 -1
7 -16 6 -15 -1 -25 -5 -22 -9 2 -4 -2 -9 -10 -12 -21 -8 -69 85 -53 103 9 10
9 11 0 6 -8 -4 -20 5 -33 26 -26 43 -36 91 -20 96 7 3 -2 17 -23 37 -27 25
-31 34 -20 41 9 6 15 28 15 62 1 43 5 52 19 52 11 0 19 -9 21 -22 2 -17 10
-23 30 -23 15 -1 30 -4 34 -8 10 -9 24 2 24 19 0 8 -6 14 -14 14 -8 0 -21 9
-29 20 -9 14 -21 18 -33 14 -19 -6 -19 -5 0 10 10 8 24 18 30 21 8 3 7 7 -2
11 -11 5 -8 24 5 24 3 0 25 -12 49 -27z m7494 -4 c25 -7 38 -14 28 -16 -9 -2
-20 -17 -23 -34 -4 -16 -13 -29 -21 -29 -20 0 -18 -5 16 -40 31 -31 35 -47 23
-88 -5 -20 -10 -23 -35 -18 -16 3 -41 15 -55 26 l-26 20 -36 -27 c-20 -15 -37
-31 -39 -35 -7 -16 -20 -7 -26 17 -4 17 1 36 16 60 27 41 32 42 52 14 14 -21
14 -21 45 9 25 24 28 31 16 36 -18 7 -20 33 -2 39 6 2 0 8 -14 11 -26 7 -26 8
-10 42 10 22 21 32 31 30 8 -3 35 -10 60 -17z m159 -25 c2 -2 -4 -12 -13 -23
-15 -16 -15 -22 -4 -42 7 -12 22 -31 32 -43 13 -13 16 -21 8 -24 -7 -2 -12
-10 -12 -18 0 -8 -7 -17 -15 -20 -8 -4 -15 -12 -15 -20 0 -7 -6 -11 -14 -8
-13 5 -31 -24 -21 -34 3 -3 5 0 5 7 0 17 39 4 67 -21 17 -16 25 -18 42 -9 24
13 27 26 9 38 -9 5 -3 9 17 13 31 6 40 1 78 -37 l22 -23 32 30 c19 18 34 26
38 19 4 -5 14 -9 23 -8 10 1 19 0 22 -1 22 -8 60 -4 60 8 0 9 -7 11 -21 7 -18
-6 -19 -5 -7 14 11 18 14 19 28 6 22 -20 36 -19 20 0 -7 8 -8 15 -2 15 5 0 15
-7 22 -15 7 -8 19 -15 26 -15 18 0 18 -11 -2 -60 -19 -47 -27 -49 -58 -15
l-23 24 -31 -30 c-18 -17 -32 -37 -32 -44 0 -19 60 -64 77 -58 13 5 13 3 4
-16 -7 -12 -20 -25 -28 -28 -32 -12 -51 -39 -41 -57 7 -13 3 -28 -16 -57 -15
-22 -31 -37 -37 -34 -5 4 -7 11 -4 16 4 5 -1 9 -10 9 -11 0 -13 4 -8 13 4 6 8
21 8 32 0 12 9 21 24 25 23 5 24 7 7 20 -39 34 -56 55 -46 58 5 2 10 8 10 14
0 6 8 17 18 24 16 13 16 15 -1 25 -10 6 -16 18 -13 27 3 9 -1 26 -9 36 -14 18
-16 17 -55 -18 l-40 -36 35 -34 c19 -19 35 -39 35 -44 0 -6 6 -13 13 -15 7 -3
4 -6 -6 -6 -10 -1 -16 -5 -13 -9 3 -5 -9 -16 -25 -26 -33 -19 -31 -20 -86 31
-17 15 -40 7 -48 -18 -4 -10 -13 -19 -21 -19 -22 0 -17 -19 16 -56 31 -36 31
-55 -1 -86 -24 -24 -35 -23 -64 7 -30 29 -33 79 -8 108 17 18 17 19 0 32 -22
16 -24 52 -5 87 12 22 17 25 28 15 10 -9 11 -9 6 1 -4 6 -2 12 3 12 6 0 11 -4
11 -10 0 -5 5 -10 11 -10 6 0 19 -10 28 -22 l18 -21 31 33 c40 41 44 68 8 44
-18 -11 -30 -13 -42 -6 -15 9 -15 11 3 29 10 10 17 25 15 31 -6 19 -30 14 -43
-10 -29 -54 -51 -56 -93 -10 -17 20 -52 20 -40 1 3 -5 10 -7 15 -4 5 4 9 1 9
-4 0 -11 -2 -12 -35 -16 -11 -1 -30 -5 -42 -9 -30 -10 -80 33 -68 60 4 10 8
28 9 39 1 15 7 19 26 16 14 -1 27 -6 30 -11 9 -13 48 -21 75 -14 14 3 24 9 21
11 -3 3 0 17 5 32 9 24 8 25 -6 7 -15 -20 -15 -20 -29 0 -13 17 -12 19 12 24
22 5 24 7 10 12 -10 4 -18 14 -18 22 0 8 8 20 18 25 9 6 11 11 5 11 -7 0 -13
5 -13 11 0 6 6 9 13 6 8 -3 20 -1 28 4 11 7 11 9 0 9 -8 0 -11 6 -7 16 4 10
-4 19 -27 29 -17 8 -26 14 -18 15 11 0 11 3 1 15 -10 12 -5 13 42 8 29 -3 55
-7 57 -9z m151 6 c0 -6 -7 -13 -15 -16 -8 -4 -15 -12 -15 -20 0 -22 -24 -17
-49 10 l-23 25 43 4 c24 2 47 4 52 5 4 1 7 -3 7 -8z m-414 -67 c-10 -10 -19 5
-10 18 6 11 8 11 12 0 2 -7 1 -15 -2 -18z m446 3 c4 -6 0 -18 -8 -27 -7 -8
-14 -25 -14 -37 0 -12 -9 -26 -20 -32 -11 -6 -18 -15 -15 -21 4 -5 -3 -9 -15
-9 -12 0 -18 5 -15 10 3 6 -5 10 -19 10 -26 0 -48 21 -28 28 6 2 8 10 5 18 -3
8 0 14 6 14 6 0 11 7 11 15 0 8 10 19 21 26 15 8 19 8 15 0 -4 -6 -3 -11 3
-11 5 0 13 9 16 20 5 16 12 19 28 14 12 -4 25 -12 29 -18z m-7206 -34 c15 -9
34 -47 34 -65 0 -8 -7 -18 -16 -21 -12 -4 -15 -2 -10 9 3 9 0 15 -9 15 -8 0
-15 5 -15 11 0 6 -7 18 -16 26 -13 13 -13 17 -2 24 16 11 20 11 34 1z m-191
-22 c-3 -5 -10 -10 -16 -10 -5 0 -9 5 -9 10 0 6 7 10 16 10 8 0 12 -4 9 -10z
m7387 -52 c-7 -7 -12 -8 -12 -2 0 14 12 26 19 19 2 -3 -1 -11 -7 -17z m-7226
-40 c-11 -15 -16 -18 -16 -7 0 16 21 42 28 34 2 -2 -3 -14 -12 -27z m99 12 c3
-5 1 -10 -4 -10 -6 0 -11 5 -11 10 0 6 2 10 4 10 3 0 8 -4 11 -10z m6579 -69
c-2 -2 -10 2 -19 9 -12 10 -13 16 -3 28 11 13 13 11 19 -9 3 -13 4 -26 3 -28z
m586 45 c0 -11 -19 -15 -25 -6 -3 5 1 10 9 10 9 0 16 -2 16 -4z m-505 -33 c27
-16 27 -62 -1 -90 -24 -24 -59 -22 -50 3 3 8 1 14 -5 14 -19 0 -27 44 -12 67
16 23 34 25 68 6z m-7205 -7 c0 -2 -7 -6 -15 -10 -8 -3 -15 -1 -15 4 0 6 7 10
15 10 8 0 15 -2 15 -4z m7080 -44 c0 -36 -52 -71 -76 -51 -13 11 -10 17 22 50
41 42 54 42 54 1z m-6367 -52 c27 -22 27 -44 -1 -54 -9 -3 -23 -9 -29 -12 -8
-4 -13 2 -13 16 0 17 -4 20 -20 15 -11 -4 -20 -2 -20 4 0 6 6 11 14 11 8 0 18
9 21 20 8 25 16 25 48 0z m-213 6 c0 -2 -7 -6 -15 -10 -8 -3 -15 -1 -15 4 0 6
7 10 15 10 8 0 15 -2 15 -4z m6900 -20 c0 -3 -4 -8 -10 -11 -5 -3 -10 -1 -10
4 0 6 5 11 10 11 6 0 10 -2 10 -4z m-42 -22 c9 -9 17 -22 18 -28 1 -6 3 -18 5
-26 3 -12 -5 -15 -36 -13 -27 1 -35 -1 -25 -7 8 -5 11 -12 8 -16 -4 -3 -18 3
-32 14 -14 10 -22 22 -19 26 3 3 2 6 -4 6 -6 0 -9 9 -6 20 3 13 14 20 29 20
12 0 26 5 29 10 8 14 14 13 33 -6z m-414 -10 c17 -7 22 -34 6 -34 -5 0 -10
-12 -10 -28 0 -40 -52 -81 -63 -49 -3 9 -7 9 -20 -2 -13 -10 -20 -11 -30 -2
-8 6 -17 8 -21 4 -4 -4 -4 0 0 10 6 18 -3 22 -22 9 -12 -8 -28 -43 -26 -54 1
-5 -5 -8 -13 -8 -8 0 -15 9 -15 20 0 14 -7 20 -22 21 -16 0 -7 8 30 24 43 20
57 22 72 13 14 -9 22 -9 35 2 12 10 13 15 3 21 -14 9 -15 8 32 37 39 24 41 25
64 16z m111 -25 c-4 -11 -2 -19 5 -19 6 0 8 5 5 10 -3 6 -2 10 3 10 5 0 12
-10 16 -22 4 -17 -2 -29 -22 -46 -22 -20 -28 -21 -30 -8 -2 9 -10 16 -17 16
-35 0 -29 65 8 79 28 11 39 4 32 -20z m65 21 c0 -5 -7 -10 -16 -10 -8 0 -12 5
-9 10 3 6 10 10 16 10 5 0 9 -4 9 -10z m120 -15 c11 -12 11 -15 1 -15 -8 0
-11 -6 -7 -15 3 -8 1 -15 -4 -15 -6 0 -10 -6 -10 -13 0 -31 -22 -34 -50 -8
-34 31 -41 61 -20 79 18 15 69 8 90 -13z m-6593 -21 c-3 -3 -12 -4 -19 -1 -8
3 -5 6 6 6 11 1 17 -2 13 -5z m188 -4 c4 -6 10 -8 15 -5 17 11 61 -18 58 -38
-7 -46 -57 -47 -82 -1 -6 10 -15 22 -20 25 -10 8 1 29 14 29 5 0 12 -5 15 -10z
m-245 -30 c-20 -15 -21 -20 -8 -20 25 0 60 -41 54 -63 -3 -13 0 -17 11 -13 8
3 18 6 23 6 4 0 8 6 7 13 -1 36 4 70 10 64 3 -4 14 0 24 9 16 15 20 15 34 1 9
-10 13 -28 11 -49 -2 -18 -4 -39 -5 -47 -1 -11 -4 -11 -16 -1 -8 6 -19 9 -25
5 -5 -3 -10 -1 -10 6 0 8 -6 6 -18 -4 -10 -10 -24 -17 -30 -17 -7 0 -12 -4
-12 -10 0 -5 7 -10 15 -10 8 0 15 -9 15 -20 0 -14 -7 -20 -22 -20 -21 0 -21 0
3 -26 22 -24 23 -26 7 -38 -24 -17 -23 -33 3 -46 15 -9 24 -8 35 1 21 17 18
-6 -3 -27 -17 -16 -18 -16 -21 -1 -2 9 -12 17 -23 17 -26 0 -79 27 -79 41 0
15 -41 -9 -73 -44 -25 -27 -27 -31 -12 -39 9 -6 23 -7 30 -4 8 3 14 2 13 -2
-1 -4 2 -18 6 -31 5 -14 4 -27 -3 -34 -6 -6 -11 -21 -11 -34 0 -18 -5 -23 -22
-22 -17 1 -19 2 -5 6 23 6 22 23 -3 23 -11 0 -20 5 -20 10 0 17 -29 11 -42 -9
-6 -10 -18 -17 -25 -14 -9 4 -16 -3 -20 -16 -4 -17 -10 -20 -27 -15 -36 11
-38 20 -13 50 21 24 27 26 41 15 15 -12 56 -7 43 5 -7 7 25 42 34 37 4 -1 10
4 13 13 4 12 1 14 -14 9 -29 -9 -42 2 -28 25 11 16 9 22 -7 34 -11 9 -26 13
-32 11 -22 -8 -14 11 20 49 39 42 48 43 88 15 33 -23 53 -17 43 13 -5 17 -3
20 10 15 10 -4 19 -1 23 9 3 9 17 20 30 25 14 5 21 14 17 20 -4 7 -9 8 -13 1
-3 -6 -20 -13 -36 -17 -19 -4 -25 -3 -17 2 9 7 4 16 -20 38 -17 15 -29 21 -25
13 4 -11 -1 -18 -15 -21 -11 -3 -17 -10 -13 -16 3 -6 1 -11 -4 -11 -6 0 -11
-7 -11 -16 0 -11 -5 -14 -17 -9 -10 4 -23 8 -30 8 -6 0 -24 10 -39 22 l-26 21
34 37 c20 20 39 37 44 37 5 0 22 -12 37 -26 l28 -26 -6 25 c-6 22 -3 26 23 32
17 3 33 13 36 21 3 8 16 19 28 24 34 13 36 12 8 -10z m6380 -20 c0 -5 -5 -10
-11 -10 -5 0 -7 5 -4 10 3 6 8 10 11 10 2 0 4 -4 4 -10z m420 -11 c0 -5 -7 -9
-15 -9 -15 0 -20 12 -9 23 8 8 24 -1 24 -14z m190 6 c0 -8 -9 -15 -20 -15 -20
0 -26 11 -13 23 12 13 33 7 33 -8z m107 -15 c-4 -16 -3 -30 1 -30 4 0 8 -11 8
-25 1 -14 -3 -25 -10 -25 -13 0 -46 -35 -46 -49 0 -5 10 -11 22 -14 22 -6 22
-7 -12 -42 -26 -27 -41 -35 -59 -32 -14 3 -35 -3 -50 -13 -32 -23 -91 -36 -91
-21 0 6 5 11 11 11 5 0 -2 11 -16 24 l-25 24 27 17 c16 10 32 24 36 32 7 11
12 11 23 2 8 -6 25 -8 40 -5 24 6 25 5 19 -24 -5 -24 -3 -30 10 -30 9 0 14 4
10 9 -3 5 4 16 16 25 12 8 18 19 15 24 -3 6 0 13 6 15 9 4 2 16 -20 37 -27 25
-31 34 -22 46 7 7 10 14 6 14 -3 0 4 11 16 25 26 30 35 31 60 8 11 -10 19 -13
18 -8 -4 17 0 35 6 35 4 0 4 -13 1 -30z m-377 -10 c0 -5 -5 -10 -11 -10 -5 0
-7 5 -4 10 3 6 8 10 11 10 2 0 4 -4 4 -10z m-6390 -26 c0 -8 -4 -12 -10 -9 -5
3 -10 10 -10 16 0 5 5 9 10 9 6 0 10 -7 10 -16z m190 7 c0 -11 -26 -22 -34
-14 -12 12 -5 23 14 23 11 0 20 -4 20 -9z m5583 -6 c-18 -13 -33 -11 -33 4 0
5 11 9 25 9 23 0 24 -2 8 -13z m683 0 c-3 -8 -1 -15 4 -15 17 0 11 -48 -6 -58
-18 -10 -11 -32 11 -32 8 0 13 -12 13 -34 0 -19 3 -39 6 -44 8 -14 -21 -35
-38 -29 -10 4 -13 -1 -11 -19 1 -13 -1 -24 -5 -24 -9 0 -23 39 -21 58 1 6 -3
12 -9 12 -7 0 -8 6 -1 19 6 10 7 21 4 25 -3 3 1 6 9 6 21 0 31 27 14 37 -7 5
-18 18 -24 30 -8 14 -18 20 -32 16 -14 -4 -20 0 -20 11 0 9 8 16 20 16 11 0
20 4 20 8 0 7 43 28 64 31 4 1 6 -6 2 -14z m-6539 -9 c3 -3 -8 -6 -25 -6 -17
0 -33 4 -36 9 -6 10 51 8 61 -3z m5970 -11 c-7 -13 -19 -26 -27 -29 -8 -2 -5
-4 8 -5 13 -1 22 -7 22 -17 0 -10 -5 -14 -16 -10 -8 3 -12 2 -9 -3 3 -5 1 -12
-4 -15 -5 -3 -12 1 -15 10 -4 11 -13 14 -29 10 -18 -4 -23 -1 -23 14 0 10 5
18 11 17 5 -1 9 4 7 11 -2 9 4 11 18 7 11 -3 20 -2 20 3 0 7 17 18 47 31 0 1
-4 -10 -10 -24z m257 14 c-2 -4 0 -10 6 -14 6 -4 8 -10 5 -15 -3 -5 3 -14 12
-19 17 -10 17 -12 -1 -26 -20 -15 -67 -21 -65 -7 4 22 -3 30 -23 24 -18 -4
-17 0 13 30 29 30 67 49 53 27z m176 -4 c10 -12 9 -20 -6 -44 -18 -28 -22 -31
-45 -31 -5 0 -8 -4 -5 -8 3 -5 -8 -6 -25 -4 -37 5 -37 14 3 31 l32 14 -25 10
c-14 5 -19 11 -11 14 6 3 12 10 12 17 0 17 55 19 70 1z m-6070 1 c0 -3 -4 -8
-10 -11 -5 -3 -10 -1 -10 4 0 6 5 11 10 11 6 0 10 -2 10 -4z m5779 -12 c-5 -7
-7 -24 -3 -40 5 -19 4 -25 -5 -20 -6 4 -11 3 -11 -3 0 -6 -9 -15 -19 -20 -15
-8 -20 -7 -25 5 -4 11 -2 15 7 11 8 -3 14 1 14 9 0 8 -9 14 -19 14 -10 0 -18
-5 -18 -12 0 -18 -29 25 -30 44 0 19 16 24 77 24 33 1 40 -2 32 -12z m-5889
-8 c0 -19 26 -40 34 -27 4 6 13 8 21 5 11 -5 12 -10 2 -25 -9 -15 -19 -17 -52
-12 -22 3 -49 13 -60 23 -11 9 -29 22 -40 28 -17 10 -15 11 12 6 17 -3 39 -1
50 5 25 14 33 14 33 -3z m6070 -6 c0 -5 -5 -12 -11 -16 -14 -8 -33 11 -25 25
7 11 36 4 36 -9z m-6378 -19 c25 -13 38 -15 50 -8 12 8 20 6 32 -6 9 -8 16
-20 16 -26 0 -6 7 -11 16 -11 14 0 14 2 3 16 -11 14 -9 19 11 35 14 10 28 19
32 19 13 0 78 -42 78 -51 0 -15 -32 -10 -45 8 -11 14 -13 13 -18 -9 -7 -28
-41 -42 -67 -28 -11 6 -21 5 -28 -2 -9 -9 -12 -8 -12 4 0 21 -16 32 -26 17 -4
-7 -3 -9 3 -6 6 4 13 -4 15 -18 3 -13 2 -22 -2 -20 -4 3 -15 -4 -25 -15 -9
-10 -23 -16 -31 -13 -8 3 -14 -1 -14 -10 0 -10 -7 -13 -20 -10 -14 4 -19 11
-15 23 4 12 -1 22 -11 28 -16 9 -16 12 5 37 13 17 19 36 16 47 -8 23 -4 23 37
-1z m6213 9 c3 -5 1 -10 -4 -10 -6 0 -11 5 -11 10 0 6 2 10 4 10 3 0 8 -4 11
-10z m-5433 -14 c24 -11 31 -38 18 -71 -16 -42 4 -95 36 -95 13 0 24 -6 24
-12 -1 -22 -37 -58 -58 -58 -11 0 -22 -5 -24 -11 -2 -6 -11 -7 -22 -3 -19 7
-19 8 0 15 18 7 18 8 -2 8 -28 1 -36 23 -18 49 11 16 11 21 2 24 -8 3 -4 9 10
17 25 13 30 38 7 38 -8 0 -15 -6 -15 -14 0 -7 -6 -12 -12 -10 -7 1 -14 -5 -14
-13 -4 -46 -4 -46 -15 -27 -11 19 -44 23 -54 7 -3 -5 -1 -10 4 -10 6 0 11 -7
11 -16 0 -8 4 -13 9 -10 19 12 20 -38 1 -54 -11 -9 -16 -21 -12 -26 4 -5 -5 2
-20 15 -15 13 -28 33 -30 45 -4 28 31 76 55 76 10 0 21 9 24 20 3 11 10 20 15
20 5 0 8 17 7 38 -4 59 22 80 73 58z m4963 -13 c6 -17 -19 -63 -34 -63 -5 0
-14 7 -21 15 -7 8 -22 16 -34 16 -17 1 -17 2 -3 6 9 2 17 8 17 13 0 34 62 45
75 13z m-5135 -13 c0 -5 -4 -10 -10 -10 -5 0 -10 5 -10 10 0 6 5 10 10 10 6 0
10 -4 10 -10z m71 -9 c-7 -5 -10 -14 -6 -21 5 -9 2 -10 -13 -6 -14 5 -21 1
-25 -14 -7 -29 -35 -36 -52 -14 -19 25 -14 37 16 41 48 7 59 9 65 16 4 4 12 7
18 7 6 0 5 -4 -3 -9z m5999 5 c0 -11 -19 -15 -25 -6 -3 5 1 10 9 10 9 0 16 -2
16 -4z m-6920 -16 c0 -5 -4 -10 -10 -10 -5 0 -10 5 -10 10 0 6 5 10 10 10 6 0
10 -4 10 -10z m515 -4 c12 -11 10 -13 -11 -13 -24 0 -30 7 -17 20 9 10 13 9
28 -7z m5505 -18 c0 -5 -7 -3 -15 6 -8 8 -15 18 -15 22 0 3 7 1 15 -6 8 -7 15
-17 15 -22z m589 8 c0 -12 -3 -15 -6 -8 -2 6 -11 12 -19 12 -9 0 -13 4 -10 8
11 17 36 8 35 -12z m-5809 5 c0 -5 -7 -12 -16 -15 -14 -5 -15 -4 -4 9 14 17
20 19 20 6z m5515 -1 c-3 -5 -11 -10 -16 -10 -6 0 -7 5 -4 10 3 6 11 10 16 10
6 0 7 -4 4 -10z m186 -13 c-13 -13 -26 -3 -16 12 3 6 11 8 17 5 6 -4 6 -10 -1
-17z m449 19 c0 -11 -19 -15 -25 -6 -3 5 1 10 9 10 9 0 16 -2 16 -4z m-518
-24 c-7 -2 -12 -10 -12 -18 0 -8 -4 -14 -10 -14 -13 0 -13 6 2 29 7 11 17 17
22 14 6 -4 5 -8 -2 -11z m288 3 c0 -8 -7 -15 -15 -15 -16 0 -20 -12 -8 -23 3
-4 12 -2 19 4 11 9 15 7 20 -6 4 -10 1 -21 -7 -26 -10 -7 -2 -9 25 -7 25 2 41
-2 43 -10 4 -9 -8 -11 -47 -7 -32 3 -49 1 -45 -5 3 -6 -3 -10 -13 -10 -23 0
-36 38 -20 57 7 9 7 13 -1 13 -16 0 9 38 29 44 8 2 16 4 18 5 1 0 2 -6 2 -14z
m-6148 -7 c-9 -9 -15 -9 -24 0 -9 9 -7 12 12 12 19 0 21 -3 12 -12z m-842 -8
c0 -5 -2 -10 -4 -10 -3 0 -8 5 -11 10 -3 6 -1 10 4 10 6 0 11 -4 11 -10z
m6850 -16 c0 -8 7 -25 15 -38 14 -21 14 -24 -2 -37 -15 -12 -16 -12 -9 1 4 8
1 7 -7 -3 -11 -14 -16 -15 -20 -5 -4 10 -8 10 -16 -2 -7 -10 -11 -11 -11 -2 0
6 -6 12 -14 12 -10 0 -13 10 -12 33 5 50 5 50 23 36 10 -8 14 -9 10 -2 -4 7 0
16 10 22 21 11 33 6 33 -15z m-6170 -9 c0 -8 -9 -15 -21 -15 -11 0 -18 -4 -15
-9 3 -5 -8 -14 -24 -21 -17 -7 -30 -20 -29 -29 1 -23 17 -69 18 -53 2 20 32
14 38 -8 3 -11 14 -20 24 -20 11 0 16 5 13 14 -3 9 4 15 20 18 39 8 32 -16
-11 -36 -25 -12 -39 -14 -41 -7 -2 6 -19 11 -38 11 -19 0 -34 5 -34 10 0 6 -7
10 -15 10 -8 0 -15 -7 -15 -15 0 -17 -9 -19 -29 -6 -9 6 -16 29 -18 57 -3 57
15 84 52 77 13 -3 33 2 45 10 12 9 29 13 36 10 8 -3 14 0 14 6 0 6 7 11 15 11
8 0 15 -7 15 -15z m193 1 c6 -15 -6 -33 -35 -55 -14 -10 -18 -9 -28 8 -8 16
-7 25 7 40 21 23 49 26 56 7z m247 -16 c0 -5 -4 -10 -10 -10 -5 0 -10 5 -10
10 0 6 5 10 10 10 6 0 10 -4 10 -10z m-390 -24 c-5 -13 -6 -27 -3 -30 11 -11
-20 -37 -36 -30 -9 4 -26 6 -38 5 -39 -2 -11 49 37 68 42 17 51 14 40 -13z
m5420 4 c0 -21 -15 -27 -25 -10 -7 12 2 30 16 30 5 0 9 -9 9 -20z m-5840 6 c0
-3 -4 -8 -10 -11 -5 -3 -10 -1 -10 4 0 6 5 11 10 11 6 0 10 -2 10 -4z m5930
-1 c0 -2 -9 -19 -19 -36 -17 -28 -20 -29 -29 -12 -8 13 -7 22 5 35 15 16 43
25 43 13z m-5890 -15 c0 -5 -5 -10 -11 -10 -5 0 -7 5 -4 10 3 6 8 10 11 10 2
0 4 -4 4 -10z m435 -17 c0 -21 -6 -29 -22 -31 -27 -4 -28 1 -7 33 21 32 30 32
29 -2z m5345 -19 c0 -15 -27 -44 -41 -44 -12 0 -11 6 2 55 10 37 12 38 25 20
8 -10 14 -24 14 -31z m-5640 22 c0 -3 -4 -8 -10 -11 -5 -3 -10 -1 -10 4 0 6 5
11 10 11 6 0 10 -2 10 -4z m-330 -27 c0 -6 -4 -7 -10 -4 -5 3 -10 11 -10 16 0
6 5 7 10 4 6 -3 10 -11 10 -16z m270 -5 c14 -37 12 -54 -5 -48 -10 4 -15 0
-15 -11 0 -12 -5 -15 -16 -11 -9 3 -20 6 -25 6 -5 0 -14 12 -20 26 -7 21 -6
31 7 45 25 28 62 24 74 -7z m6119 -12 c121 -59 173 -151 175 -307 1 -83 -2
-96 -32 -157 -18 -38 -49 -80 -68 -97 -36 -29 -134 -64 -157 -56 -7 3 -34 6
-61 8 -43 2 -50 6 -51 26 -1 19 2 21 19 16 12 -4 44 -9 71 -12 90 -9 155 56
175 179 21 124 -8 223 -83 282 -35 28 -46 31 -105 31 -45 -1 -78 -7 -101 -19
l-34 -18 6 42 c10 73 78 125 151 115 21 -3 64 -18 95 -33z m721 15 c0 -2 -12
-14 -26 -28 -25 -22 -26 -23 -15 -2 9 18 19 26 39 32 1 1 2 0 2 -2z m-134 -27
c29 0 40 -23 28 -58 -10 -28 -54 -40 -54 -15 0 10 -7 12 -20 8 -16 -5 -19 -2
-17 24 1 17 8 31 15 31 6 0 12 8 13 18 0 10 3 12 6 5 2 -7 16 -13 29 -13z
m-78 -8 c2 -7 -3 -12 -12 -12 -9 0 -16 7 -16 16 0 17 22 14 28 -4z m-5994 -8
c3 -8 2 -12 -4 -9 -6 3 -10 10 -10 16 0 14 7 11 14 -7z m5782 -2 c40 -32 60
-102 30 -102 -8 0 -16 -6 -19 -12 -2 -7 -13 13 -25 45 -33 86 -29 104 14 69z
m141 12 c-3 -4 4 -15 16 -26 12 -11 16 -17 9 -13 -9 5 -11 0 -7 -17 4 -17 2
-25 -7 -25 -7 0 -22 -4 -32 -9 -14 -5 -17 -4 -11 5 6 10 2 11 -16 6 -20 -7
-22 -6 -12 7 7 8 10 18 7 21 -4 3 -4 18 0 32 5 19 13 25 33 25 14 0 24 -3 20
-6z m-5617 -13 c0 -6 -4 -13 -10 -16 -5 -3 -10 1 -10 9 0 9 5 16 10 16 6 0 10
-4 10 -9z m-40 -21 c0 -5 -7 -10 -16 -10 -9 0 -14 -7 -12 -17 2 -13 12 -17 31
-16 21 2 28 -3 33 -23 7 -26 2 -37 -19 -40 -7 -1 -25 -5 -41 -9 -22 -6 -27 -5
-21 5 9 15 -11 30 -42 30 -13 0 -23 -6 -23 -14 0 -25 -15 -26 -48 -3 -34 23
-43 57 -16 57 10 0 14 -6 10 -15 -3 -9 0 -15 10 -15 8 0 12 5 9 10 -3 6 -1 10
6 10 8 0 8 4 -1 15 -16 20 -14 22 35 29 31 5 35 4 18 -3 -15 -7 -23 -19 -23
-36 0 -23 3 -25 37 -23 39 3 60 28 24 28 -19 0 -20 2 -9 20 16 24 58 39 58 20z
m-830 -15 c11 -13 8 -15 -13 -15 -28 0 -44 15 -25 23 21 9 25 8 38 -8z m904
-6 c-3 -5 -17 -9 -31 -9 -21 0 -23 3 -14 14 12 15 55 10 45 -5z m-1009 0 c10
-15 -1 -22 -24 -14 -12 3 -19 11 -16 16 8 12 32 11 40 -2z m5739 -15 c20 -20
20 -43 1 -50 -8 -4 -15 -13 -15 -20 0 -15 -34 -15 -57 -1 -16 10 -17 41 -3 68
13 23 53 25 74 3z m-5561 -1 c-7 -2 -21 -2 -30 0 -10 3 -4 5 12 5 17 0 24 -2
18 -5z m427 -83 c19 -20 49 -46 65 -59 19 -15 25 -25 17 -28 -39 -14 -113 -77
-152 -130 -25 -34 -48 -62 -51 -62 -4 -1 -9 19 -12 44 -9 60 -40 121 -90 172
-22 24 -39 44 -36 46 2 2 33 17 69 34 36 17 76 40 90 51 l25 21 20 -27 c10
-15 35 -43 55 -62z m6050 61 c0 -5 -9 -11 -20 -14 -22 -6 -26 3 -8 21 11 11
28 7 28 -7z m-1115 -1 c3 -5 -1 -10 -9 -10 -9 0 -16 5 -16 10 0 6 4 10 9 10 6
0 13 -4 16 -10z m-5707 -30 c0 -19 -4 -30 -13 -30 -21 0 -27 17 -15 40 15 29
27 25 28 -10z m211 -7 c11 -39 9 -49 -8 -38 -6 3 -8 12 -5 18 4 7 -2 3 -13 -8
-10 -11 -19 -29 -19 -40 1 -22 -34 -29 -41 -7 -3 6 2 12 10 12 28 0 31 39 5
59 -13 11 -19 23 -15 27 4 5 12 2 17 -5 7 -12 11 -11 25 2 24 25 33 21 44 -20z
m996 28 c3 -5 1 -12 -4 -15 -5 -3 -11 1 -15 9 -6 16 9 21 19 6z m5687 -24 c37
-35 50 -63 35 -75 -12 -10 -33 -15 -54 -13 -13 1 -12 48 1 70 4 6 2 11 -3 11
-6 0 -11 7 -11 15 0 20 3 19 32 -8z m-7074 -9 c2 -9 -6 -18 -18 -21 -14 -4
-20 0 -20 12 0 33 32 41 38 9z m126 -90 c-16 -35 -34 -50 -34 -28 0 5 -6 7
-13 4 -16 -6 -33 27 -42 79 -4 23 -2 37 5 37 5 0 10 -5 10 -11 0 -5 5 -7 10
-4 6 3 10 1 10 -6 0 -10 3 -10 12 -1 9 9 15 9 26 -1 13 -10 14 -9 4 9 -6 12
-8 24 -5 28 4 3 12 -11 20 -31 11 -33 11 -43 -3 -75z m140 96 c3 -9 4 -20 1
-24 -3 -5 -1 -11 4 -15 6 -3 8 -12 4 -21 -4 -11 -9 -12 -19 -3 -11 9 -14 8
-14 -5 0 -9 7 -16 15 -16 8 0 15 -9 15 -20 0 -18 -2 -19 -20 -8 -11 7 -20 17
-20 21 0 5 -8 6 -18 3 -16 -5 -19 0 -21 39 -2 39 1 47 21 55 34 13 45 12 52
-6z m6696 -21 c0 -8 12 -13 30 -13 18 0 30 -5 30 -13 0 -21 -37 -50 -52 -41
-7 4 -10 3 -5 -1 4 -5 0 -17 -10 -27 -15 -17 -15 -21 6 -59 23 -40 23 -41 3
-62 -11 -12 -22 -29 -24 -37 -4 -11 -7 -10 -17 8 -6 12 -20 22 -31 22 -13 0
-18 5 -14 15 4 9 0 15 -10 15 -9 0 -16 -7 -16 -15 0 -8 -4 -15 -10 -15 -5 0
-10 -7 -10 -15 0 -8 7 -15 15 -15 8 0 15 5 15 12 0 9 3 9 11 1 9 -9 8 -19 -6
-39 l-18 -28 -16 42 c-9 24 -15 59 -13 78 4 34 5 34 23 18 18 -17 20 -16 40 4
11 12 24 22 28 22 5 0 11 11 13 25 4 19 0 26 -23 34 -34 12 -37 35 -9 71 11
14 20 31 20 37 0 18 50 -6 50 -24z m-7010 22 c0 -2 -10 -9 -22 -15 -22 -11
-22 -10 -4 4 21 17 26 19 26 11z m-350 -35 l76 0 -3 -37 c-3 -31 -2 -35 7 -20
6 9 17 17 25 17 23 0 28 -20 10 -40 -13 -14 -13 -19 -3 -23 10 -3 9 -11 -5
-36 -35 -60 7 -120 59 -86 13 8 24 22 24 30 0 21 34 19 72 -5 44 -26 64 -26
63 3 0 12 -4 28 -8 35 -7 10 -3 11 15 7 19 -5 24 -2 24 14 0 12 -7 21 -16 21
-25 1 -53 27 -44 42 4 7 4 10 -1 6 -9 -9 -45 9 -45 22 0 15 30 12 30 -2 0 -7
5 -5 11 4 16 29 44 39 75 28 15 -6 24 -13 20 -17 -3 -3 -1 -12 5 -19 8 -10 7
-18 -6 -31 -16 -15 -16 -18 -1 -28 8 -7 16 -26 18 -43 1 -17 6 -28 10 -26 4 3
10 -7 14 -21 3 -13 11 -22 16 -19 6 4 8 1 6 -7 -3 -8 -10 -13 -16 -12 -5 1
-16 -4 -22 -12 -17 -21 -46 -19 -70 5 -25 25 -39 25 -47 3 -10 -25 -45 -53
-60 -48 -7 2 -20 -9 -30 -25 -17 -29 -63 -43 -63 -20 0 6 5 10 10 10 6 0 21
10 34 23 19 19 20 25 9 35 -7 7 -13 10 -13 7 0 -3 -5 -3 -11 1 -8 4 -7 9 2 15
11 7 11 9 -2 9 -15 0 -35 -49 -30 -73 1 -4 -4 -7 -11 -6 -24 3 -38 -1 -38 -10
0 -5 10 -7 23 -3 22 5 22 5 3 -17 -14 -16 -16 -20 -5 -16 9 3 30 -8 53 -30 31
-29 42 -45 22 -32 -2 1 -12 -5 -22 -14 -34 -29 -50 -29 -79 1 -27 29 -28 30
-10 56 15 24 16 26 1 21 -9 -4 -16 -2 -16 3 0 6 -3 9 -7 9 -23 -4 -43 2 -38
11 3 5 0 7 -9 4 -19 -7 -68 58 -114 155 l-36 74 29 23 c17 13 22 22 13 20 -9
-1 -23 -8 -32 -15 -14 -12 -16 -11 -16 7 0 12 -4 23 -9 26 -5 3 -11 18 -14 32
-5 26 -5 27 47 20 28 -3 85 -6 126 -6z m207 -5 c0 -17 -30 -30 -35 -16 -2 6
-13 11 -25 12 -20 1 -20 2 3 8 41 11 57 10 57 -4z m6201 -15 c-1 -16 -5 -30
-9 -30 -11 0 -21 38 -14 50 12 20 25 9 23 -20z m828 -5 c9 -19 9 -27 -1 -35
-14 -12 -25 6 -25 41 0 26 13 24 26 -6z m403 -15 c-16 -10 -25 -5 -40 21 -10
20 -10 20 22 4 24 -13 28 -19 18 -25z m-5896 23 c-20 -7 -15 -30 7 -36 24 -6
27 -37 4 -37 -8 0 -22 -7 -30 -15 -22 -21 -28 -19 -41 15 -10 28 -9 31 12 36
13 3 25 14 28 25 3 10 11 19 19 18 10 0 10 -2 1 -6z m5028 -30 c-6 -31 -11
-38 -29 -37 -22 1 -31 -20 -12 -29 6 -3 5 -4 -2 -3 -21 5 -11 68 13 89 31 25
37 21 30 -20z m1359 21 c0 -8 -5 -12 -10 -9 -6 4 -8 11 -5 16 9 14 15 11 15
-7z m40 7 c0 -6 -4 -13 -10 -16 -5 -3 -10 1 -10 9 0 9 5 16 10 16 6 0 10 -4
10 -9z m-6496 -16 c-4 -8 -8 -15 -10 -15 -2 0 -4 7 -4 15 0 8 4 15 10 15 5 0
7 -7 4 -15z m139 -37 c-3 -16 -12 -28 -19 -28 -19 0 -18 15 2 34 8 9 11 16 5
16 -6 0 -11 8 -11 17 0 15 2 15 14 3 9 -9 12 -26 9 -42z m-1585 22 c12 -12 22
-25 22 -30 0 -5 7 -7 15 -4 8 4 15 1 15 -4 0 -6 -9 -14 -20 -17 -28 -9 -25
-25 5 -25 14 0 25 -5 25 -12 0 -6 -3 -9 -6 -6 -3 4 -21 0 -40 -8 -36 -15 -58
-10 -83 20 -8 9 -17 13 -22 10 -23 -14 -6 36 22 64 37 38 39 38 67 12z m6261
-13 c12 -15 6 -66 -8 -68 -3 0 -16 -2 -28 -5 -13 -2 -23 0 -23 5 0 5 -9 13
-20 16 -25 8 -19 41 12 67 21 19 43 14 67 -15z m1564 13 c7 -25 -4 -25 -34 0
l-24 19 26 1 c18 0 28 -6 32 -20z m-319 1 c14 -6 26 -20 28 -33 4 -23 8 -25
43 -13 16 6 17 5 5 -4 -10 -7 -11 -11 -2 -11 6 0 12 -7 12 -16 0 -8 5 -12 11
-8 8 5 8 1 0 -14 -16 -30 -42 -42 -63 -31 -20 11 -25 49 -6 49 6 0 8 3 4 8 -4
4 -13 7 -19 7 -7 0 -13 8 -15 18 -2 9 2 17 8 17 6 0 8 5 5 10 -3 6 -15 10 -26
10 -10 0 -19 5 -19 10 0 12 2 12 34 1z m146 -10 c13 -25 13 -28 -4 -34 -10 -4
-13 -1 -9 9 3 8 0 21 -7 29 -8 10 -9 15 -2 15 6 0 16 -9 22 -19z m-7040 -11
c-6 -11 -7 -20 -3 -20 5 0 14 -14 20 -30 6 -17 8 -28 3 -25 -5 3 -10 0 -12 -5
-2 -6 -17 -12 -33 -13 -17 -1 -34 -6 -38 -12 -5 -6 -7 -3 -3 7 3 10 1 20 -3
22 -5 3 -8 17 -8 30 0 22 25 41 50 37 4 -1 7 6 7 14 0 8 7 15 15 15 13 0 14
-4 5 -20z m5722 -5 c6 -29 -7 -34 -15 -6 -4 17 0 31 9 31 1 0 4 -11 6 -25z
m1588 1 c0 -13 5 -26 11 -28 7 -2 7 -11 0 -28 -7 -18 -10 -20 -10 -7 -1 25
-21 21 -21 -5 -1 -22 -1 -23 -15 -4 -14 18 -15 18 -15 2 0 -26 -44 -17 -48 10
-3 18 4 22 37 28 35 5 41 10 41 31 0 14 5 25 10 25 6 0 10 -11 10 -24z m-7182
-18 c39 -27 51 -55 18 -42 -8 3 -26 -6 -41 -20 -32 -29 -45 -26 -45 11 0 14
-8 31 -17 38 -14 10 -15 16 -5 27 18 22 43 18 90 -14z m7022 12 c0 -5 -4 -10
-10 -10 -5 0 -10 5 -10 10 0 6 5 10 10 10 6 0 10 -4 10 -10z m-7540 -19 c0 -5
-7 -12 -16 -15 -24 -9 -28 -7 -14 9 14 17 30 20 30 6z m150 -10 c0 -4 -4 -11
-9 -16 -20 -22 -22 -53 -4 -59 10 -3 6 -4 -10 -2 -16 2 -27 -1 -26 -8 3 -28
-3 -36 -30 -36 -32 0 -63 32 -54 56 3 8 -2 17 -11 20 -21 8 -21 34 0 34 8 0
13 -4 9 -9 -11 -19 18 -24 32 -6 7 11 13 14 13 8 0 -6 9 -9 20 -6 11 3 20 13
20 23 0 13 6 16 25 12 14 -2 25 -7 25 -11z m103 7 c18 1 27 -4 27 -13 0 -8 5
-15 10 -15 15 0 12 -17 -7 -40 -23 -26 -36 -25 -27 2 6 20 5 21 -9 7 -17 -17
-20 -30 -18 -68 1 -18 5 -22 21 -18 13 3 20 0 20 -9 0 -8 6 -11 16 -7 11 4 15
1 12 -13 -2 -11 -7 -22 -13 -26 -6 -4 -2 -8 9 -8 15 0 16 -3 6 -15 -7 -8 -16
-12 -21 -10 -4 3 -12 -3 -18 -12 -5 -10 -13 -14 -17 -10 -5 5 -2 12 6 17 8 5
12 12 8 15 -3 4 -15 -2 -26 -13 -17 -17 -21 -18 -26 -5 -9 24 -7 75 3 68 5 -3
12 -1 15 4 3 5 -5 12 -19 15 -27 7 -32 25 -12 45 10 10 7 16 -11 31 -20 17
-21 22 -10 40 11 17 11 22 -1 29 -11 7 -10 10 5 14 10 2 26 2 34 -1 8 -3 27
-5 43 -4z m5657 -3 c0 -8 -4 -15 -10 -15 -5 0 -7 7 -4 15 4 8 8 15 10 15 2 0
4 -7 4 -15z m494 9 c25 -9 19 -24 -9 -24 -24 0 -32 10 -18 23 8 8 8 8 27 1z
m546 -2 c0 -13 -12 -22 -22 -16 -10 6 -1 24 13 24 5 0 9 -4 9 -8z m554 -19
c12 -24 12 -30 0 -41 -8 -7 -19 -10 -26 -6 -7 5 -9 2 -6 -8 4 -8 2 -21 -2 -29
-7 -10 -12 -6 -20 16 -28 71 -24 95 15 95 17 0 29 -9 39 -27z m-1274 7 c0 -5
-5 -10 -11 -10 -5 0 -7 5 -4 10 3 6 8 10 11 10 2 0 4 -4 4 -10z m854 -43 c-1
-12 -3 -29 -3 -38 -1 -11 -9 -15 -28 -14 -43 3 -45 4 -40 19 3 7 0 19 -6 25
-8 8 -2 12 21 17 27 6 31 10 26 28 -6 20 -6 20 13 3 11 -9 19 -27 17 -40z m60
44 c10 -15 -33 -20 -45 -5 -9 11 -7 14 14 14 14 0 28 -4 31 -9z m-5813 -44
c-20 -20 -22 -21 -15 -2 8 21 25 37 33 29 3 -2 -5 -15 -18 -27z m4773 18 c-4
-8 -13 -15 -22 -15 -13 0 -12 3 4 15 24 18 25 18 18 0z m1116 -20 c11 -34 7
-55 -11 -55 -5 0 -9 7 -9 15 0 9 -7 15 -17 13 -10 -2 -19 4 -21 15 -6 27 3 42
26 44 15 1 24 -7 32 -32z m-5961 -16 c-8 -5 -27 -9 -43 -9 -28 0 -29 1 -11 14
11 8 25 12 31 9 7 -2 16 1 20 8 6 10 9 10 12 0 2 -7 -2 -17 -9 -22z m-664 1
c-3 -5 -10 -10 -16 -10 -5 0 -9 5 -9 10 0 6 7 10 16 10 8 0 12 -4 9 -10z
m-915 -10 c0 -5 -2 -10 -4 -10 -3 0 -8 5 -11 10 -3 6 -1 10 4 10 6 0 11 -4 11
-10z m6648 -14 c8 -19 8 -27 -3 -36 -21 -17 -54 -3 -50 21 9 45 35 53 53 15z
m1092 10 c0 -22 -23 -36 -40 -25 -13 8 -12 12 4 24 25 19 36 19 36 1z m227 8
c-3 -3 -12 -4 -19 -1 -8 3 -5 6 6 6 11 1 17 -2 13 -5z m-7079 -21 c13 -27 9
-45 -11 -57 -15 -9 -22 -7 -37 12 -11 13 -24 21 -30 17 -13 -8 -13 1 2 25 16
25 64 27 76 3z m622 -5 c0 -6 -6 -5 -15 2 -8 7 -15 14 -15 16 0 2 7 1 15 -2 8
-4 15 -11 15 -16z m188 0 c2 -5 10 -4 18 3 11 9 16 6 24 -16 14 -36 13 -37
-12 -30 -17 6 -20 4 -15 -9 4 -10 1 -16 -9 -16 -8 0 -17 13 -20 30 -5 24 -12
30 -31 30 -19 0 -24 -4 -19 -17 4 -9 -1 -23 -13 -34 -18 -17 -20 -17 -40 2
-12 11 -18 26 -15 32 18 32 26 36 45 27 13 -7 22 -6 31 4 13 15 50 11 56 -6z
m4539 -23 c4 -11 7 -24 8 -29 0 -5 9 -13 20 -18 16 -7 14 -7 -9 -4 -19 2 -39
-3 -57 -16 -42 -32 -50 -16 -26 51 19 52 23 57 39 47 10 -6 21 -20 25 -31z
m131 25 c30 -14 43 -30 23 -30 -5 0 -14 -14 -20 -30 -8 -26 -14 -30 -36 -26
-51 9 -64 32 -46 79 11 27 30 29 79 7z m86 6 c-10 -8 -21 -12 -24 -10 -5 6 21
24 34 24 6 0 1 -6 -10 -14z m1014 -3 c6 -19 -25 -16 -32 3 -4 11 -1 14 11 12
9 -2 18 -9 21 -15z m-6897 -30 c-12 -20 -14 -14 -5 12 4 9 9 14 11 11 3 -2 0
-13 -6 -23z m6156 21 c-3 -3 -12 -4 -19 -1 -8 3 -5 6 6 6 11 1 17 -2 13 -5z
m-5282 -18 c36 -9 55 -19 55 -27 0 -21 -31 -41 -55 -36 -19 3 -25 0 -25 -14 0
-14 7 -19 25 -19 33 0 32 -16 -1 -24 -34 -9 -24 -18 28 -25 32 -5 46 -12 55
-30 10 -21 9 -27 -7 -38 -10 -7 -26 -10 -34 -7 -9 3 -22 1 -30 -5 -11 -9 -18
-8 -30 4 -9 9 -16 22 -16 28 0 7 -9 20 -21 30 -13 12 -18 24 -14 37 8 25 -3
26 -21 3 -13 -17 -15 -17 -25 0 -5 9 -16 17 -23 17 -20 0 -26 49 -8 67 14 13
17 13 33 -8 10 -13 17 -26 16 -29 -1 -3 2 -7 7 -10 12 -6 51 58 42 68 -4 3
-11 0 -17 -8 -8 -13 -10 -13 -19 0 -14 22 -12 28 13 33 19 4 37 3 72 -7z
m6205 -16 c0 -12 10 -21 30 -25 l30 -7 -17 -29 c-20 -34 -36 -36 -63 -9 -20
20 -19 46 2 34 7 -5 9 5 4 31 -5 25 -4 35 3 30 6 -3 11 -15 11 -25z m-6930 5
c0 -18 12 -19 28 -3 14 14 25 -9 20 -44 -5 -34 -38 -37 -38 -3 0 14 -4 24 -9
21 -16 -10 -41 5 -41 25 0 12 7 19 20 19 11 0 20 -7 20 -15z m6569 -11 c14
-12 -19 -1 -35 12 -18 14 -18 14 6 3 14 -6 27 -13 29 -15z m687 -2 c9 -13 8
-27 -3 -55 -8 -20 -19 -34 -24 -31 -14 8 -11 26 4 19 6 -4 4 0 -5 8 -21 16
-22 30 -8 58 13 24 22 24 36 1z m-7500 -59 c16 -17 16 -18 1 -21 -13 -3 -15
-10 -11 -28 5 -20 2 -26 -14 -30 -19 -6 -19 -6 3 -30 12 -13 27 -24 33 -24 5
0 12 -7 16 -15 3 -8 1 -15 -4 -15 -6 0 -9 -3 -8 -7 5 -20 -15 -54 -28 -49 -18
7 -19 -18 -1 -32 16 -13 40 -10 61 7 13 11 16 11 16 -2 0 -8 6 -20 14 -26 11
-9 18 -6 34 14 12 15 30 25 47 25 24 0 26 -3 23 -32 -2 -25 -9 -33 -36 -42
-18 -7 -30 -15 -25 -20 4 -5 3 -6 -4 -2 -7 4 -13 14 -13 22 0 22 -16 16 -28
-11 -13 -29 -36 -34 -27 -6 3 12 0 21 -10 25 -12 4 -14 0 -9 -18 4 -19 1 -26
-15 -31 -11 -3 -25 -4 -31 0 -6 3 -7 -1 -4 -9 3 -9 1 -16 -6 -16 -6 0 -9 -8
-6 -18 4 -12 -2 -21 -24 -30 -16 -8 -34 -11 -40 -7 -15 9 -2 25 16 18 12 -4
14 0 8 20 -4 18 -1 32 10 43 9 8 14 20 11 25 -4 5 -3 9 2 9 4 0 8 11 8 26 l0
25 -22 -28 c-13 -15 -23 -35 -23 -44 0 -19 -16 -34 -48 -44 -23 -7 -122 31
-122 47 0 5 9 4 19 -2 26 -13 54 -13 46 1 -4 5 0 18 8 27 7 9 17 25 20 35 10
26 33 20 47 -13 16 -40 30 -29 26 20 -4 34 -1 40 15 40 21 0 27 19 7 22 -37 4
-45 1 -70 -24 -15 -16 -31 -28 -35 -28 -4 0 -19 12 -34 26 -18 17 -34 24 -45
20 -14 -5 -14 -9 -3 -23 13 -14 11 -16 -13 -11 -16 3 -28 1 -28 -3 0 -5 5 -9
12 -9 9 0 9 -3 1 -11 -14 -14 -73 -4 -99 17 -10 8 -13 13 -6 9 7 -4 12 0 12
10 0 19 44 65 62 65 8 0 20 -9 28 -20 14 -19 37 -29 26 -11 -3 5 5 12 18 15
14 3 28 15 31 26 3 11 12 20 19 20 23 0 66 -25 66 -39 0 -8 6 -11 16 -7 9 3
20 6 25 6 6 0 8 4 5 9 -3 4 1 16 8 27 12 15 11 23 -2 51 -9 18 -22 33 -29 33
-7 0 -13 7 -13 15 0 9 -6 12 -15 9 -9 -4 -15 0 -15 10 0 9 8 16 19 16 10 0 21
7 25 15 3 8 14 15 23 15 10 0 25 9 33 20 15 20 15 20 21 -5 4 -13 15 -33 25
-42z m6954 53 c0 -3 -4 -8 -10 -11 -5 -3 -10 -1 -10 4 0 6 5 11 10 11 6 0 10
-2 10 -4z m394 -11 c19 -19 10 -45 -15 -45 -25 0 -35 26 -19 45 15 18 15 18
34 0z m96 -4 c0 -9 -24 -21 -43 -21 -6 0 -2 7 9 15 22 17 34 19 34 6z m-7710
-11 c0 -5 -2 -10 -4 -10 -3 0 -8 5 -11 10 -3 6 -1 10 4 10 6 0 11 -4 11 -10z
m621 -7 c13 -16 12 -17 -3 -4 -17 13 -22 21 -14 21 2 0 10 -8 17 -17z m117 -1
c2 -7 -3 -12 -12 -12 -9 0 -16 7 -16 16 0 17 22 14 28 -4z m729 11 c-4 -3 -2
-12 5 -20 14 -17 2 -31 -13 -16 -12 12 -6 43 7 43 4 0 4 -3 1 -7z m5863 -18
c0 -14 -6 -28 -14 -31 -16 -6 -81 24 -72 33 3 3 12 0 21 -7 12 -10 15 -10 15
3 0 15 14 25 38 26 6 1 12 -10 12 -24z m-7218 -59 c1 -14 6 -26 11 -26 4 0 13
-13 18 -30 6 -16 17 -30 25 -30 8 0 14 -4 14 -10 0 -16 -15 -12 -44 11 -14 11
-34 19 -45 17 -11 -2 -33 7 -51 20 -27 20 -29 26 -18 39 12 15 11 15 -9 4 -13
-6 -23 -18 -23 -26 0 -8 -6 -15 -14 -15 -7 0 -16 -9 -19 -20 -8 -32 -77 -24
-77 9 0 9 -5 22 -11 28 -8 8 -4 18 12 37 12 14 27 26 33 26 6 0 4 -5 -4 -11
-12 -9 -12 -10 4 -5 12 4 27 -1 42 -15 l22 -21 21 21 c12 12 19 26 16 31 -6 9
8 14 28 11 4 -1 10 5 13 13 8 21 53 -25 56 -58z m348 70 c0 -3 -4 -8 -10 -11
-5 -3 -10 -1 -10 4 0 6 5 11 10 11 6 0 10 -2 10 -4z m33 -30 c-3 -4 -9 -2 -14
5 -13 22 -11 31 5 17 8 -7 12 -17 9 -22z m6526 15 c16 -12 22 -24 18 -35 -4
-10 -11 -15 -15 -12 -5 3 -15 -3 -24 -13 -14 -16 -13 -19 3 -30 11 -6 19 -20
19 -31 0 -11 2 -20 4 -20 2 0 12 -3 22 -7 13 -5 15 -3 10 8 -4 8 1 3 12 -10
19 -24 19 -25 1 -44 -12 -13 -26 -18 -44 -15 -19 4 -23 2 -16 -5 6 -6 11 -21
11 -33 0 -17 4 -21 20 -17 11 3 20 0 20 -6 0 -6 6 -11 14 -11 7 0 16 -9 19
-21 3 -12 10 -18 15 -15 6 3 8 16 4 28 -4 17 -2 20 11 15 19 -7 22 4 6 20 -8
8 -8 13 0 17 6 4 11 0 11 -8 0 -11 9 -16 29 -16 15 0 41 -10 56 -22 20 -15 30
-18 33 -10 2 7 8 10 13 6 5 -3 12 3 16 13 3 10 12 25 19 33 14 17 13 48 -2 58
-5 4 -18 20 -28 36 -16 25 -16 28 -3 23 9 -3 23 0 31 8 12 12 16 11 32 -10 10
-14 24 -25 31 -25 7 0 13 -7 13 -15 0 -9 -9 -15 -25 -15 -14 0 -25 -4 -25 -9
0 -11 25 -21 50 -21 10 0 22 -5 26 -11 5 -8 0 -10 -17 -6 -13 3 -30 2 -38 -2
-16 -10 -6 -31 15 -31 8 0 13 -6 12 -12 -2 -7 7 -14 20 -16 20 -3 28 10 23 40
0 4 6 5 14 2 9 -4 15 0 15 10 0 9 7 16 16 16 8 0 12 5 9 10 -3 6 -1 10 4 10 6
0 11 -6 11 -13 0 -8 9 -22 19 -31 26 -23 32 -53 14 -67 -11 -10 -11 -14 -1
-20 9 -6 6 -9 -10 -9 -13 0 -21 -4 -17 -9 3 -5 -8 -9 -25 -9 -20 1 -27 4 -18
9 17 11 -18 38 -49 39 -28 0 -52 -38 -32 -52 10 -6 7 -7 -8 -3 -30 8 -29 -6 2
-35 30 -29 31 -43 4 -81 -25 -35 -30 -35 -66 -6 -32 27 -70 40 -79 26 -3 -5 0
-9 7 -9 8 0 8 -4 -1 -15 -10 -12 -10 -15 4 -15 18 0 21 -15 5 -26 -6 -3 -8
-16 -5 -29 5 -19 -1 -25 -46 -44 -33 -14 -55 -18 -61 -12 -6 6 -16 3 -26 -10
-25 -30 -76 -41 -95 -21 -8 10 -15 21 -15 27 0 5 -4 11 -10 13 -6 2 -8 -3 -5
-12 4 -11 1 -16 -10 -16 -16 0 -22 -15 -8 -23 4 -2 2 -3 -4 -1 -7 1 -22 -7
-34 -18 -18 -17 -24 -18 -31 -7 -6 11 -9 10 -15 -4 -7 -20 -34 -23 -34 -4 0 6
4 19 10 27 6 9 5 17 -3 22 -8 5 -3 8 11 8 19 0 21 3 13 18 -6 11 -6 24 -1 33
11 16 3 47 -16 66 -9 9 -11 25 -7 46 8 41 9 42 28 27 10 -8 15 -9 15 -1 0 14
33 14 47 0 9 -9 10 -6 6 11 -5 18 -2 21 13 18 13 -2 18 -10 16 -23 -3 -17 1
-16 26 9 32 30 33 44 3 66 -18 12 -18 17 -5 59 11 37 11 50 1 71 -8 15 -10 36
-6 53 9 32 -18 92 -41 92 -8 0 -16 8 -18 19 -3 16 0 18 23 12 17 -4 24 -3 20
4 -3 5 -13 10 -21 10 -19 0 -18 15 3 40 21 25 31 25 62 1z m172 -12 c6 -24 4
-26 -25 -25 -32 1 -41 19 -23 44 15 20 40 10 48 -19z m-7241 11 c0 -5 -5 -10
-11 -10 -5 0 -7 5 -4 10 3 6 8 10 11 10 2 0 4 -4 4 -10z m1433 -23 c-3 -5 -10
-4 -15 1 -6 6 -7 16 -3 22 6 9 9 9 16 -1 4 -7 5 -17 2 -22z m5502 23 c-3 -6 1
-13 9 -16 26 -10 0 -47 -29 -41 -15 2 -26 -1 -30 -11 -3 -8 -8 -12 -12 -9 -8
9 24 74 40 80 20 9 29 8 22 -3z m-6200 -10 c3 -5 2 -10 -4 -10 -5 0 -13 5 -16
10 -3 6 -2 10 4 10 5 0 13 -4 16 -10z m6962 -4 c-3 -8 1 -17 10 -20 9 -4 14
-9 11 -11 -3 -3 -17 1 -31 8 -23 12 -23 14 -9 25 23 15 25 14 19 -2z m-407 -6
c13 -9 13 -10 0 -10 -8 0 -22 5 -30 10 -13 9 -13 10 0 10 8 0 22 -5 30 -10z
m-5925 -11 c10 -14 1 -21 -19 -13 -9 3 -13 10 -10 15 7 12 21 11 29 -2z m139
-5 c3 -8 2 -12 -4 -9 -6 3 -10 10 -10 16 0 14 7 11 14 -7z m120 0 c16 -42 0
-57 -30 -27 -11 11 -13 18 -5 21 6 2 9 8 5 13 -3 5 1 9 9 9 8 0 18 -7 21 -16z
m5574 -24 c7 0 12 -4 12 -10 0 -23 -37 -8 -54 23 l-19 32 25 -22 c13 -13 30
-23 36 -23z m-6658 26 c0 -3 -4 -8 -10 -11 -5 -3 -10 -1 -10 4 0 6 5 11 10 11
6 0 10 -2 10 -4z m5525 -6 c-3 -5 -3 -10 2 -11 4 0 21 -2 38 -4 16 -2 32 0 35
5 3 5 20 13 38 16 27 6 33 3 43 -20 7 -14 16 -26 21 -26 4 0 8 -5 8 -11 0 -5
-5 -7 -11 -4 -6 4 -17 -3 -26 -15 -8 -12 -21 -19 -28 -16 -10 3 -10 -2 -2 -25
6 -16 16 -29 23 -29 6 0 15 -10 20 -22 13 -31 6 -71 -11 -65 -7 3 -17 1 -23
-5 -17 -17 -50 12 -54 48 -3 27 0 34 19 39 20 5 21 8 11 30 -11 25 -41 34 -53
15 -3 -5 -10 -10 -16 -10 -5 0 -9 5 -9 10 0 6 7 10 15 10 8 0 16 5 16 10 4 31
3 40 -3 40 -5 0 -12 0 -18 0 -5 0 -10 -6 -10 -14 0 -17 -49 -58 -60 -51 -5 3
-11 1 -15 -5 -3 -5 -16 -10 -28 -10 -21 1 -21 1 -4 14 18 14 18 16 1 41 -16
25 -16 27 6 50 23 24 89 37 75 15z m-5390 -10 c3 -5 1 -10 -4 -10 -6 0 -11 5
-11 10 0 6 2 10 4 10 3 0 8 -4 11 -10z m-35 -37 c0 -7 -6 -13 -14 -13 -25 0
-29 -20 -6 -28 19 -7 18 -10 -20 -31 -40 -22 -53 -36 -25 -25 10 4 15 0 15
-15 0 -31 23 -26 38 9 8 18 21 30 33 30 10 0 19 5 19 10 0 6 6 10 13 10 6 -1
1 -10 -13 -21 -14 -12 -26 -31 -26 -42 -1 -12 -6 -23 -11 -24 -6 -2 -8 -15 -5
-29 3 -19 9 -24 23 -21 22 6 26 -11 4 -19 -15 -6 -16 -49 -1 -73 7 -11 10 -11
17 0 6 10 11 11 19 3 7 -7 6 -19 -5 -40 -8 -16 -15 -26 -15 -21 0 4 -11 0 -24
-8 -24 -16 -81 -11 -70 6 3 5 -2 6 -10 3 -12 -5 -16 0 -15 17 0 13 3 18 6 12
9 -23 33 -14 33 12 0 13 7 28 17 33 14 8 13 12 -10 27 -15 9 -27 25 -27 35 0
10 -7 23 -15 30 -8 7 -13 16 -10 20 2 4 0 21 -4 38 -7 22 -6 32 2 36 8 3 7 8
-3 15 -13 10 -13 11 0 11 9 1 6 5 -7 10 -28 11 -30 30 -3 30 11 0 27 11 35 24
14 21 19 22 40 12 14 -6 25 -17 25 -23z m96 23 c16 -17 19 -36 4 -36 -5 0 -10
-7 -10 -15 0 -22 -15 -18 -27 8 -7 15 -7 27 1 40 13 21 14 21 32 3z m762 -13
c2 -16 11 -23 35 -25 31 -3 31 -3 10 -16 -18 -10 -28 -10 -45 -1 -13 7 -29 15
-37 19 -8 3 -18 16 -22 29 -8 21 -6 22 24 19 24 -2 33 -8 35 -25z m5832 -19
c0 -2 -12 1 -26 7 -15 5 -35 7 -45 4 -21 -7 -25 5 -8 22 8 8 20 6 45 -9 19
-11 34 -22 34 -24z m305 22 c0 -11 6 -21 13 -24 6 -2 12 2 12 9 0 8 7 5 19 -7
17 -17 17 -21 3 -36 -8 -10 -12 -18 -8 -18 4 0 2 -9 -4 -20 -9 -16 -14 -18
-34 -9 -20 9 -22 16 -17 38 5 15 2 39 -6 59 -13 31 -13 33 4 30 10 -2 18 -12
18 -22z m-7171 -17 c-3 -5 -13 -9 -22 -10 -14 0 -14 -2 2 -8 14 -5 16 -10 8
-15 -17 -10 -15 -41 3 -56 23 -19 18 -34 -15 -47 -16 -6 -30 -7 -30 -2 0 5 6
9 13 9 7 0 5 5 -5 11 -10 5 -15 16 -12 24 4 8 1 15 -4 15 -13 0 4 55 27 87 12
15 20 18 28 11 7 -6 10 -14 7 -19z m649 24 c-7 -2 -19 -2 -25 0 -7 3 -2 5 12
5 14 0 19 -2 13 -5z m5997 -37 c0 -18 -1 -19 -20 -1 -11 10 -20 24 -20 32 0
11 4 11 20 1 11 -7 20 -21 20 -32z m455 34 c4 -6 -7 -10 -24 -10 -17 0 -31 5
-31 10 0 6 11 10 24 10 14 0 28 -4 31 -10z m180 0 c3 -5 -1 -10 -10 -10 -9 0
-13 5 -10 10 3 6 8 10 10 10 2 0 7 -4 10 -10z m-6325 -4 c0 -3 -4 -8 -10 -11
-5 -3 -10 -1 -10 4 0 6 5 11 10 11 6 0 10 -2 10 -4z m5960 -6 c0 -5 -4 -10
-10 -10 -5 0 -10 5 -10 10 0 6 5 10 10 10 6 0 10 -4 10 -10z m-7006 -16 c3 -9
4 -20 0 -25 -8 -13 -32 -11 -37 4 -11 32 25 53 37 21z m718 -1 c24 -21 23 -33
-3 -33 -24 0 -53 26 -44 40 9 15 26 12 47 -7z m6467 -2 c8 -1 11 -4 8 -7 -3
-4 -2 -15 3 -25 7 -12 7 -20 0 -24 -5 -3 -10 -16 -11 -28 0 -12 -3 -17 -5 -11
-6 14 -44 6 -44 -9 0 -5 -9 0 -20 13 -39 45 -14 105 40 94 8 -1 21 -3 29 -3z
m-7159 -16 c0 -8 -4 -15 -10 -15 -5 0 -7 7 -4 15 4 8 8 15 10 15 2 0 4 -7 4
-15z m824 -13 c-4 -15 -12 -32 -19 -37 -7 -6 -10 -23 -7 -43 5 -34 -7 -42 -28
-18 -8 10 -9 20 -2 33 7 12 6 20 -5 28 -19 14 -9 52 15 57 47 10 52 8 46 -20z
m6226 6 c0 -13 -23 -5 -28 10 -2 7 2 10 12 6 9 -3 16 -11 16 -16z m-6394 -18
c18 -16 29 -32 24 -35 -6 -4 -8 -11 -4 -16 3 -6 -6 -8 -23 -6 -16 3 -35 -2
-46 -11 -13 -11 -21 -12 -28 -5 -14 14 -3 33 17 33 8 0 13 4 9 9 -3 5 5 17 17
25 18 13 19 16 5 16 -9 0 -17 5 -17 10 0 16 10 12 46 -20z m5900 15 c-3 -8 -2
-15 3 -15 4 0 6 -12 3 -26 -3 -19 -1 -25 7 -20 6 4 11 1 11 -9 0 -9 -6 -15
-12 -13 -7 3 -19 -2 -27 -9 -23 -23 -44 -11 -46 26 -1 28 4 37 27 50 15 9 28
19 28 24 0 4 3 7 6 7 3 0 4 -7 0 -15z m296 -29 c-4 -32 -7 -36 -31 -34 -37 3
-39 38 -3 60 34 21 39 17 34 -26z m-6458 28 c9 -3 16 -10 16 -15 0 -14 -26
-10 -40 6 -13 16 -3 20 24 9z m659 -9 c4 -8 2 -17 -3 -20 -6 -4 -10 3 -10 14
0 25 6 27 13 6z m177 5 c0 -5 -7 -10 -16 -10 -8 0 -12 5 -9 10 3 6 10 10 16
10 5 0 9 -4 9 -10z m4622 -15 c0 -5 -5 -11 -11 -13 -6 -2 -11 4 -11 13 0 9 5
15 11 13 6 -2 11 -8 11 -13z m1042 -1 c9 -23 8 -24 -14 -24 -11 0 -20 2 -20 4
0 12 13 36 20 36 4 0 11 -7 14 -16z m456 12 c0 -3 -4 -8 -10 -11 -5 -3 -10 -1
-10 4 0 6 5 11 10 11 6 0 10 -2 10 -4z m-6979 -59 c7 -16 12 -35 12 -43 0 -8
5 -14 11 -14 6 0 6 -4 -2 -12 -8 -8 -15 -8 -26 1 -16 14 -32 -2 -20 -20 8 -13
-13 -29 -38 -29 -11 0 -18 8 -18 20 0 11 7 20 15 20 28 0 16 30 -12 31 -27 0
-27 1 -5 9 12 5 25 16 28 25 3 8 10 13 14 10 16 -10 20 13 5 25 -22 18 -18 32
5 18 11 -7 25 -25 31 -41z m349 16 c-11 -17 -11 -17 -6 0 3 10 6 24 7 30 0 9
2 9 5 0 3 -7 0 -20 -6 -30z m290 28 c0 -5 7 -16 15 -25 9 -9 11 -17 5 -21 -5
-3 -10 -1 -10 4 0 14 -37 14 -45 0 -4 -5 0 -18 9 -28 21 -23 20 -43 -3 -70
l-19 -22 -24 23 c-14 13 -22 31 -20 42 2 10 -2 22 -10 27 -24 16 -35 10 -30
-16 2 -14 7 -25 11 -25 3 0 6 -14 7 -30 1 -17 -3 -30 -7 -30 -5 0 -9 5 -9 10
0 12 -27 13 -32 1 -6 -16 -43 -20 -61 -7 -35 27 4 87 51 78 15 -3 11 30 -7 52
-19 23 -5 33 17 13 10 -10 30 -17 43 -17 14 0 30 -5 37 -12 9 -9 13 -7 18 5 3
9 12 17 20 17 8 0 14 9 14 20 0 11 7 20 15 20 8 0 15 -4 15 -9z m92 -13 c-7
-7 -12 -8 -12 -2 0 6 3 14 7 17 3 4 9 5 12 2 2 -3 -1 -11 -7 -17z m159 2 c10
-6 19 -21 19 -35 0 -18 -7 -25 -29 -30 -16 -3 -41 -18 -56 -32 -19 -20 -29
-23 -37 -15 -8 8 -6 13 8 18 33 12 52 34 47 55 -3 10 0 26 7 34 15 18 16 18
41 5z m4294 -10 c3 -5 -1 -10 -9 -10 -9 0 -16 5 -16 10 0 6 4 10 9 10 6 0 13
-4 16 -10z m868 4 c9 -10 -33 -45 -66 -55 l-30 -9 28 30 c15 16 32 27 37 24 4
-3 8 0 8 5 0 12 13 15 23 5z m-716 -60 c3 -8 9 -11 14 -8 5 3 9 0 9 -5 0 -6
-6 -11 -13 -11 -8 0 -27 -11 -43 -25 -16 -14 -31 -25 -34 -25 -3 0 -18 12 -33
25 -33 29 -30 53 10 85 l25 20 30 -21 c16 -12 32 -28 35 -35z m-4549 20 c4
-25 -15 -42 -57 -54 -27 -8 -31 -6 -31 11 0 13 -4 18 -11 13 -7 -4 -2 7 11 23
27 38 83 42 88 7z m4808 -42 c-8 -13 -56 -12 -56 0 0 6 -11 8 -25 5 -17 -3
-24 0 -22 7 2 6 11 10 20 10 9 -1 14 2 11 8 -3 5 -1 15 5 22 9 11 17 8 42 -15
17 -16 28 -33 25 -37z m-5556 48 c0 -5 -4 -10 -10 -10 -5 0 -10 5 -10 10 0 6
5 10 10 10 6 0 10 -4 10 -10z m6067 -9 c0 -11 -5 -17 -9 -15 -11 7 -10 34 1
34 6 0 9 -9 8 -19z m-933 -1 c33 -12 32 -17 -3 -59 -25 -29 -28 -38 -19 -57 6
-13 23 -27 39 -33 25 -8 32 -6 66 25 24 23 39 30 42 22 2 -7 10 -18 18 -25 8
-6 18 -28 23 -48 7 -33 6 -37 -16 -45 -27 -11 -33 -47 -8 -57 21 -8 34 -44 22
-66 -10 -20 6 -40 37 -45 26 -5 39 -18 30 -31 -4 -7 -21 -9 -43 -6 -27 5 -33
4 -22 -4 8 -6 15 -18 15 -28 0 -10 8 -19 18 -21 12 -2 17 3 17 17 0 14 6 21
20 21 13 0 20 7 20 20 0 12 7 20 18 20 14 0 15 -2 2 -10 -13 -8 -13 -10 1 -10
29 0 41 -63 14 -74 -8 -3 -26 -1 -39 5 -29 14 -56 -5 -48 -33 2 -10 -1 -18 -7
-18 -6 0 -11 10 -11 23 -1 21 -1 22 -15 3 -11 -15 -18 -17 -26 -9 -6 6 -18 9
-25 6 -7 -3 -21 2 -29 11 -9 9 -31 16 -48 17 -18 0 -54 8 -82 18 -39 14 -46
20 -34 27 9 5 20 20 24 33 5 16 4 21 -4 17 -6 -4 -11 0 -11 8 0 25 -48 32 -69
10 -10 -11 -16 -25 -13 -33 3 -9 -4 -9 -27 3 -17 9 -31 21 -31 26 0 24 45 100
57 96 7 -3 19 4 27 15 8 11 17 16 20 11 3 -5 -1 -15 -9 -22 -8 -7 -15 -18 -15
-25 0 -19 38 -6 55 18 16 22 20 59 8 55 -12 -3 -53 26 -53 37 0 5 11 23 25 39
14 17 23 36 21 43 -4 11 33 123 41 123 1 0 13 -4 27 -10z m1741 -10 c3 -6 -1
-13 -9 -16 -9 -3 -14 -9 -12 -13 3 -4 -5 -20 -18 -35 -21 -27 -23 -27 -39 -12
-20 21 -22 36 -3 36 7 0 22 11 32 25 20 26 39 32 49 15z m-6617 -22 c-5 -15 9
-31 35 -41 9 -3 17 -12 17 -19 0 -20 -29 -58 -45 -58 -7 0 -16 -6 -18 -12 -3
-7 -6 -3 -6 10 -1 19 -5 22 -21 17 -25 -8 -25 4 1 54 11 22 18 45 14 51 -3 5
1 10 10 10 9 0 15 -6 13 -12z m5807 -10 c7 -7 2 -9 -15 -4 -14 3 -31 6 -38 6
-7 0 -10 5 -7 10 7 12 44 4 60 -12z m-6758 -25 c-11 -10 -26 8 -20 23 5 15 7
14 15 -1 6 -9 7 -19 5 -22z m1043 27 c0 -5 -6 -10 -14 -10 -8 0 -18 5 -21 10
-3 6 3 10 14 10 12 0 21 -4 21 -10z m-600 -27 c-1 -19 -18 -33 -33 -27 -18 6
-21 16 -10 27 9 9 43 9 43 0z m440 -8 c0 -8 -4 -15 -9 -15 -13 0 -22 16 -14
24 11 11 23 6 23 -9z m5490 5 c0 -5 -4 -10 -10 -10 -5 0 -10 5 -10 10 0 6 5
10 10 10 6 0 10 -4 10 -10z m80 -8 c0 -4 -13 -9 -30 -10 -36 -3 -39 5 -7 17
22 9 37 6 37 -7z m400 -22 c-6 -4 -10 -11 -9 -16 5 -30 -3 -44 -26 -44 -17 0
-29 7 -34 23 -11 27 10 63 34 59 12 -2 15 1 9 10 -4 7 2 4 15 -6 13 -12 18
-22 11 -26z m-5515 20 c3 -5 -3 -10 -14 -10 -12 0 -21 5 -21 10 0 6 6 10 14
10 8 0 18 -4 21 -10z m185 6 c0 -11 -19 -15 -25 -6 -3 5 1 10 9 10 9 0 16 -2
16 -4z m83 -11 c7 -17 -13 -59 -39 -84 -18 -16 -19 -16 -37 17 -21 39 -10 62
29 62 13 0 24 5 24 10 0 15 17 12 23 -5z m5287 0 c0 -8 -4 -15 -10 -15 -5 0
-10 7 -10 15 0 8 5 15 10 15 6 0 10 -7 10 -15z m-6903 -1 c-3 -3 -12 -4 -19
-1 -8 3 -5 6 6 6 11 1 17 -2 13 -5z m6543 -19 c13 8 30 -29 21 -44 -10 -16
-66 -17 -86 -1 -8 7 -15 9 -15 5 0 -4 -7 -2 -15 5 -12 10 -13 16 -3 27 10 13
13 13 24 -1 17 -23 47 -10 38 17 -6 20 -6 20 10 4 10 -9 22 -15 26 -12z
m-5695 7 c15 -11 17 -39 5 -62 -12 -23 -29 -25 -55 -7 -17 13 -17 15 5 45 25
34 29 36 45 24z m5420 -2 c-3 -5 -1 -10 5 -10 16 0 1 -53 -22 -73 -24 -21 -48
-7 -48 27 0 12 -6 28 -12 36 -11 12 -10 12 3 2 13 -10 21 -9 40 8 26 21 44 26
34 10z m441 -15 c3 -6 1 -22 -4 -35 l-9 -24 -27 27 c-22 22 -25 31 -17 41 13
16 50 10 57 -9z m-5811 5 c-3 -5 -10 -10 -16 -10 -5 0 -9 5 -9 10 0 6 7 10 16
10 8 0 12 -4 9 -10z m5010 0 c3 -5 -3 -10 -14 -10 -11 0 -23 5 -26 10 -3 6 3
10 14 10 11 0 23 -4 26 -10z m-5204 -22 c22 -25 23 -35 7 -52 -24 -22 -46 -25
-62 -7 -21 24 -20 36 6 61 27 25 27 25 49 -2z m756 -1 c11 -14 26 -21 38 -19
17 4 18 2 6 -12 -7 -9 -18 -16 -24 -16 -6 0 -18 -7 -28 -16 -35 -32 -89 14
-68 59 14 31 53 33 76 4z m4646 14 c25 -10 40 -41 28 -58 -10 -17 -49 -33 -63
-28 -16 6 -48 57 -48 75 0 6 4 8 10 5 5 -3 18 -1 27 4 22 13 17 13 46 2z m283
-1 c15 0 24 -6 24 -15 0 -8 9 -20 20 -27 19 -12 19 -13 -2 -35 -19 -21 -33
-87 -15 -76 4 2 7 -1 7 -6 0 -6 7 -11 15 -11 8 0 15 -5 15 -11 0 -6 -8 -8 -19
-4 -12 4 -23 0 -28 -10 -8 -13 -11 -13 -31 1 -17 12 -20 19 -12 34 9 16 5 19
-30 25 -43 7 -52 20 -20 30 11 3 20 13 20 21 0 10 7 14 18 12 9 -2 16 -10 14
-17 -1 -7 5 -11 15 -9 11 2 19 14 21 30 3 22 0 26 -16 21 -13 -3 -28 3 -41 16
-23 23 -19 46 6 37 8 -3 26 -6 39 -6z m974 -5 c0 -8 -4 -15 -9 -15 -13 0 -22
16 -14 24 11 11 23 6 23 -9z m-6286 -42 c3 -7 -1 -13 -9 -13 -8 0 -15 6 -15
14 0 8 -7 16 -15 20 -8 3 -15 10 -15 16 0 13 47 -20 54 -37z m116 33 c0 -3 -4
-8 -10 -11 -5 -3 -10 -1 -10 4 0 6 5 11 10 11 6 0 10 -2 10 -4z m128 -19 c9
-7 12 -25 9 -49 -2 -21 0 -41 5 -44 5 -3 7 -12 4 -20 -3 -8 6 -25 19 -38 14
-14 25 -23 25 -20 0 3 5 2 10 -1 6 -4 4 -12 -5 -21 -8 -9 -19 -13 -24 -9 -5 3
-12 -4 -16 -15 -7 -23 -32 -25 -59 -5 -11 8 -28 13 -38 9 -14 -4 -18 0 -18 21
0 15 4 24 10 20 6 -3 13 2 17 12 9 24 29 44 36 36 4 -3 4 5 2 17 -6 31 -5 30
-63 23 -38 -4 -53 -11 -57 -24 -4 -12 -16 -19 -30 -19 -26 0 -40 -14 -30 -30
5 -8 11 -8 19 -1 7 6 30 13 52 16 35 5 37 4 21 -8 -15 -13 -15 -16 -2 -27 24
-20 18 -42 -27 -90 -24 -25 -43 -49 -43 -55 0 -14 -115 -19 -115 -5 0 6 14 9
35 7 28 -4 35 -1 35 14 0 10 13 23 30 30 l29 14 -26 20 c-22 18 -24 24 -14 43
6 12 8 22 3 22 -14 0 -27 -21 -42 -67 -7 -24 -18 -43 -24 -44 -84 -8 -91 -6
-87 29 1 6 -5 12 -14 12 -8 0 -15 -9 -15 -19 0 -11 -7 -26 -15 -35 -8 -8 -15
-19 -15 -25 0 -16 -6 -14 -49 14 -32 20 -38 29 -34 47 3 13 10 28 14 34 5 6 6
13 3 17 -3 3 4 3 17 0 18 -5 21 -3 16 11 -4 10 -7 22 -7 28 0 6 -6 8 -13 5 -8
-3 -31 11 -52 30 -44 40 -38 56 27 60 22 2 47 8 54 14 17 14 30 -51 15 -79 -8
-16 -7 -21 5 -26 14 -5 14 -9 3 -22 -11 -14 -10 -18 6 -30 10 -8 25 -14 32
-14 19 0 62 51 63 74 0 19 1 19 20 -2 27 -29 48 -28 60 2 5 13 13 27 19 30 6
4 5 18 -3 39 -19 44 -5 77 31 77 35 0 48 -9 57 -37 4 -13 13 -20 24 -18 9 2
20 4 23 4 4 1 3 18 -2 39 -5 20 -9 39 -9 42 0 10 85 -2 98 -13z m-970 -10 c2
-10 -3 -17 -12 -17 -10 0 -16 9 -16 21 0 24 23 21 28 -4z m802 13 c0 -5 -4
-10 -10 -10 -5 0 -10 5 -10 10 0 6 5 10 10 10 6 0 10 -4 10 -10z m491 -12
c-11 -30 -41 -37 -41 -9 0 17 11 25 42 30 4 0 4 -9 -1 -21z m-741 1 c0 -7 8
-18 17 -25 10 -7 15 -16 10 -20 -4 -4 -13 1 -21 11 -12 17 -16 17 -30 6 -21
-17 -27 -12 -19 17 5 23 43 32 43 11z m6520 -9 c0 -5 8 -7 18 -4 9 3 1 -8 -18
-25 -31 -27 -70 -41 -70 -25 0 8 54 63 63 64 4 0 7 -4 7 -10z m-6380 -4 c0 -2
-7 -7 -16 -10 -8 -3 -12 -2 -9 4 6 10 25 14 25 6z m5140 -32 c0 -8 -4 -14 -10
-14 -5 0 -10 -9 -10 -20 0 -24 -13 -25 -39 -3 -24 20 -19 33 9 26 19 -5 27 10
21 41 -1 5 5 4 13 -4 9 -7 16 -19 16 -26z m570 15 c0 -4 -7 -6 -15 -3 -8 4
-15 10 -15 15 0 4 7 6 15 3 8 -4 15 -10 15 -15z m-6343 5 c-4 -4 0 -12 8 -18
7 -6 17 -23 21 -38 5 -22 3 -28 -10 -28 -9 0 -16 3 -16 8 0 6 -19 10 -72 12
-18 1 -26 20 -10 20 5 0 13 10 19 23 7 14 20 23 38 25 16 1 25 -1 22 -4z m563
-4 c0 -6 6 -10 13 -9 43 5 67 -22 59 -68 -3 -20 -9 -23 -48 -23 -39 0 -44 3
-50 27 -4 14 -2 34 5 45 6 10 9 23 6 28 -4 6 -1 10 4 10 6 0 11 -5 11 -10z
m5863 -5 c1 -5 -6 -11 -15 -13 -11 -2 -18 3 -18 13 0 17 30 18 33 0z m-5343
-10 c0 -8 -7 -15 -15 -15 -16 0 -20 12 -8 23 11 12 23 8 23 -8z m177 -7 c-3
-8 -6 -5 -6 6 -1 11 2 17 5 13 3 -3 4 -12 1 -19z m4877 7 c-6 -16 -24 -21 -24
-7 0 11 11 22 21 22 5 0 6 -7 3 -15z m-6279 -13 c6 -4 10 -13 9 -19 -6 -51
-15 -56 -61 -38 -33 13 -40 20 -36 36 4 14 12 19 24 16 11 -3 22 -1 25 4 6 11
25 11 39 1z m1360 -8 c18 -12 28 -13 43 -5 17 9 23 6 41 -24 20 -34 20 -35 1
-25 -26 14 -66 -3 -73 -32 -10 -36 -8 -41 9 -24 8 9 21 16 27 16 6 0 4 -7 -5
-17 -16 -15 -16 -17 0 -29 14 -10 11 -14 -28 -24 -25 -7 -57 -13 -72 -14 -16
0 -28 -4 -28 -7 0 -4 -17 -10 -37 -14 -21 -3 -49 -9 -63 -12 -21 -5 -23 -3
-12 8 17 19 15 50 -5 65 -10 7 -19 17 -19 23 -1 6 -2 16 -3 21 0 6 -8 10 -16
10 -8 0 -15 5 -15 10 0 6 7 10 15 10 9 0 21 11 27 25 12 27 46 33 66 13 17
-17 72 -18 72 -2 0 11 36 44 48 44 1 0 13 -7 27 -16z m-930 -22 c11 -7 28 -15
38 -18 17 -6 21 -35 8 -67 -4 -10 -10 -18 -14 -18 -4 0 -14 -2 -23 -6 -20 -8
-54 29 -54 59 0 10 -4 16 -10 13 -5 -3 -10 -1 -10 4 0 14 -47 14 -55 1 -3 -5
2 -10 13 -10 17 0 18 -5 12 -37 -4 -21 -11 -46 -15 -55 -8 -19 -25 -24 -25 -8
0 6 -6 10 -13 10 -24 0 -49 37 -42 59 4 13 2 21 -5 21 -7 0 -10 7 -6 15 3 8 1
15 -5 15 -6 0 -7 5 -3 12 6 9 9 9 12 0 2 -7 10 -12 17 -12 7 0 16 -6 18 -12 4
-10 8 -9 16 2 6 8 12 18 13 22 2 4 18 10 36 14 26 5 32 3 32 -11 0 -20 24 -15
26 6 2 30 4 34 12 24 4 -5 16 -16 27 -23z m705 12 c0 -8 -4 -12 -10 -9 -5 3
-10 10 -10 16 0 5 5 9 10 9 6 0 10 -7 10 -16z m5220 -9 c-7 -8 -17 -15 -23
-15 -6 0 -2 7 9 15 25 19 30 19 14 0z m-607 -10 c-3 -9 -8 -14 -10 -11 -3 3
-2 9 2 15 9 16 15 13 8 -4z m720 3 c7 -19 -10 -58 -25 -58 -37 1 -55 13 -55
36 0 17 4 24 13 20 8 -3 14 -1 14 4 0 15 47 12 53 -2z m-6376 -44 c-10 -10
-29 17 -22 32 6 17 8 17 16 -5 5 -13 8 -25 6 -27z m5916 32 c8 8 47 -5 47 -17
0 -5 -9 -9 -20 -9 -11 0 -20 -5 -20 -11 0 -20 -27 -38 -49 -32 -25 7 -28 39
-4 65 11 12 20 15 28 8 6 -5 14 -7 18 -4z m280 -23 c-13 -10 -20 -10 -31 -1
-12 10 -11 14 3 24 13 10 20 10 30 1 11 -10 11 -14 -2 -24z m-419 -25 c-4 -6
4 -8 17 -6 16 2 24 9 23 21 -1 9 3 17 10 17 6 0 12 -13 13 -29 2 -27 0 -29
-35 -28 -20 1 -45 -2 -54 -7 -20 -9 -61 27 -56 52 5 26 50 33 70 10 10 -11 15
-24 12 -30z m486 7 c0 -14 -4 -25 -10 -25 -5 0 -10 11 -10 25 0 14 5 25 10 25
6 0 10 -11 10 -25z m-5695 5 c3 -5 -1 -10 -9 -10 -9 0 -16 5 -16 10 0 6 4 10
9 10 6 0 13 -4 16 -10z m775 0 c0 -5 -2 -10 -4 -10 -3 0 -8 5 -11 10 -3 6 -1
10 4 10 6 0 11 -4 11 -10z m-630 -10 c0 -5 -5 -10 -11 -10 -5 0 -7 5 -4 10 3
6 8 10 11 10 2 0 4 -4 4 -10z m690 -36 c0 -8 -6 -14 -14 -14 -8 0 -13 9 -12
24 1 18 4 22 14 14 6 -6 12 -17 12 -24z m-1396 11 c7 -19 -5 -19 -30 0 -19 14
-19 14 2 15 12 0 24 -7 28 -15z m79 -9 c21 -23 22 -36 2 -36 -23 0 -65 22 -65
35 0 30 35 31 63 1z m6240 11 c9 -23 -8 -40 -32 -32 -17 5 -19 10 -11 26 12
22 35 25 43 6z m-4963 -18 c0 -11 -4 -17 -10 -14 -5 3 -10 13 -10 21 0 8 5 14
10 14 6 0 10 -9 10 -21z m-1080 1 c0 -5 -4 -10 -10 -10 -5 0 -10 5 -10 10 0 6
5 10 10 10 6 0 10 -4 10 -10z m5660 0 c0 -5 -2 -10 -4 -10 -3 0 -8 5 -11 10
-3 6 -1 10 4 10 6 0 11 -4 11 -10z m-120 -31 c0 -18 -35 -5 -38 14 -3 16 -1
17 17 7 12 -6 21 -15 21 -21z m-74 6 c-8 -8 -17 -15 -20 -15 -3 0 -6 7 -6 15
0 9 9 15 21 15 18 0 19 -2 5 -15z m-5466 -5 c0 -5 -2 -10 -4 -10 -3 0 -8 5
-11 10 -3 6 -1 10 4 10 6 0 11 -4 11 -10z m45 1 c3 -5 1 -12 -5 -16 -5 -3 -10
1 -10 9 0 18 6 21 15 7z m5675 -7 c0 -9 -5 -14 -12 -12 -18 6 -21 28 -4 28 9
0 16 -7 16 -16z m170 6 c0 -5 -2 -10 -4 -10 -3 0 -8 5 -11 10 -3 6 -1 10 4 10
6 0 11 -4 11 -10z m-5760 -33 c0 -5 7 -7 15 -3 20 7 20 -28 -1 -48 -17 -18
-27 -19 -73 -10 -39 8 -41 35 -5 69 22 20 29 22 45 12 10 -6 19 -16 19 -20z
m5974 17 c18 -18 11 -38 -11 -30 -9 4 -11 2 -7 -6 5 -7 -1 -9 -19 -6 -15 3
-24 1 -21 -3 3 -5 0 -9 -5 -9 -6 0 -11 5 -11 10 0 6 -7 10 -15 10 -8 0 -15 5
-15 11 0 6 9 8 20 4 14 -4 20 -2 20 8 0 28 41 35 64 11z m-1014 2 c0 -3 -4 -8
-10 -11 -5 -3 -10 -1 -10 4 0 6 5 11 10 11 6 0 10 -2 10 -4z m-4376 -23 c20
-10 36 -20 36 -23 0 -10 -90 -26 -102 -19 -7 4 -17 4 -23 -1 -16 -14 -115 -24
-115 -13 0 19 30 35 52 30 12 -4 28 -1 35 5 7 6 22 8 34 5 15 -4 23 0 26 14 6
23 13 24 57 2z m-724 -14 c0 -17 -4 -20 -22 -15 -13 3 -27 6 -32 6 -5 0 -3 7
4 15 19 23 50 19 50 -6z m5652 -9 c3 -20 0 -30 -8 -30 -7 0 -14 -5 -16 -12 -3
-8 -12 -5 -28 10 -13 12 -18 22 -11 22 7 0 9 5 6 10 -3 6 4 14 17 19 34 14 35
14 40 -19z m273 19 c8 -12 -23 -38 -47 -39 -9 0 -20 5 -24 12 -5 8 -2 9 9 5
24 -9 47 2 40 19 -6 16 13 19 22 3z m-135 -8 c0 -5 -3 -17 -6 -25 -5 -13 -9
-14 -20 -5 -11 9 -11 15 -3 25 13 16 29 18 29 5z m200 -20 c0 -5 3 -16 6 -25
3 -9 2 -16 -4 -16 -5 0 -12 11 -14 25 -3 14 -1 25 3 25 5 0 9 -4 9 -9z m-249
-24 c-6 -8 -7 -18 -3 -23 4 -4 -1 -2 -10 5 -20 15 -15 31 9 31 12 0 13 -3 4
-13z m84 3 c-3 -5 -10 -10 -16 -10 -5 0 -9 5 -9 10 0 6 7 10 16 10 8 0 12 -4
9 -10z m-275 -31 c11 -8 12 -12 3 -16 -7 -2 -13 -11 -13 -18 0 -10 -10 -13
-30 -12 -36 2 -40 27 -7 43 30 15 30 15 47 3z m380 1 c0 -5 -7 -10 -16 -10 -8
0 -12 5 -9 10 3 6 10 10 16 10 5 0 9 -4 9 -10z m-310 -10 c0 -5 -10 -10 -22
-9 -22 0 -22 1 -3 9 11 5 21 9 23 9 1 1 2 -3 2 -9z m-5340 -90 c0 -5 -4 -10
-10 -10 -5 0 -10 5 -10 10 0 6 5 10 10 10 6 0 10 -4 10 -10z m5610 -120 c0 -5
-5 -10 -11 -10 -5 0 -7 5 -4 10 3 6 8 10 11 10 2 0 4 -4 4 -10z"/>
<path d="M7070 8374 c-52 -10 -126 -37 -166 -60 -101 -57 -237 -198 -299 -309
-103 -183 -148 -517 -125 -918 19 -337 50 -524 132 -807 28 -96 54 -196 59
-222 4 -27 11 -53 15 -60 4 -7 10 -46 13 -88 l6 -75 -61 0 c-50 0 -68 -5 -103
-28 -52 -35 -96 -103 -112 -172 -14 -62 -21 -65 -154 -65 -129 0 -141 4 -155
56 -15 54 -69 118 -123 146 -33 16 -53 19 -100 15 -55 -5 -59 -4 -68 20 -5 13
-9 66 -9 117 0 101 -9 120 -52 114 -55 -8 -96 -140 -77 -246 22 -115 94 -219
194 -277 41 -24 42 -27 49 -87 15 -148 123 -278 230 -278 85 0 125 103 61 157
-25 22 -35 24 -76 19 l-47 -6 -16 40 c-23 57 -21 83 4 75 64 -20 262 -21 363
0 l37 7 0 -35 c0 -20 -4 -47 -9 -60 -9 -22 -14 -24 -58 -20 -46 5 -51 3 -76
-27 -54 -64 -18 -149 62 -150 79 0 189 89 211 171 7 24 10 72 8 107 l-4 64 52
34 c62 41 115 98 143 152 49 97 46 256 -8 367 -16 33 -37 98 -46 145 -9 47
-32 144 -51 217 -100 393 -124 969 -53 1299 38 179 83 260 210 386 132 129
239 165 458 155 126 -5 212 -27 315 -79 117 -59 197 -159 300 -374 51 -107
101 -139 146 -94 29 29 25 64 -18 160 -96 215 -212 355 -352 424 -131 64 -248
88 -450 91 -96 2 -186 1 -200 -1z m-907 -3081 c-13 -2 -35 -2 -50 0 -16 2 -5
4 22 4 28 0 40 -2 28 -4z"/>
<path d="M5030 8290 c-160 -43 -295 -125 -411 -248 -98 -104 -142 -190 -147
-287 -3 -60 -1 -74 18 -97 12 -16 25 -28 30 -28 19 0 39 33 61 97 34 106 67
162 133 231 255 266 662 307 892 90 99 -93 138 -170 170 -336 3 -12 16 -28 30
-34 23 -11 29 -9 45 11 27 33 26 142 -2 216 -49 130 -163 262 -281 325 -114
61 -161 72 -318 76 -122 4 -157 1 -220 -16z"/>
<path d="M7385 7199 c-186 -20 -399 -109 -481 -203 -24 -28 -47 -62 -51 -75
-7 -27 7 -55 29 -59 16 -3 135 51 223 102 l60 35 0 -82 c0 -72 3 -88 28 -130
40 -67 94 -100 172 -105 55 -4 70 0 116 24 48 27 93 78 101 114 2 8 8 18 13
22 18 13 12 159 -9 197 -13 25 -15 36 -6 41 9 6 9 9 -1 13 -10 4 -9 6 4 6 9 1
17 -3 17 -9 0 -14 43 -12 59 3 10 8 12 9 7 0 -7 -13 9 -17 114 -28 30 -3 95
-19 143 -36 105 -35 113 -35 127 -8 38 70 -152 158 -384 179 -125 11 -167 11
-281 -1z"/>
<path d="M4945 7140 c-176 -20 -360 -88 -408 -152 -15 -21 -17 -29 -8 -47 7
-11 20 -21 30 -21 29 0 132 46 124 55 -5 4 -2 5 5 1 7 -4 38 0 70 9 98 29 105
30 179 25 61 -4 71 -7 63 -20 -15 -24 -12 -40 8 -34 12 4 10 0 -5 -12 -50 -36
-18 -189 53 -256 93 -87 250 -75 323 24 38 52 55 129 42 189 -6 24 -11 47 -11
52 0 4 44 -15 98 -41 53 -27 119 -57 145 -67 48 -18 48 -18 70 3 21 22 21 22
2 57 -70 132 -310 231 -575 240 -69 2 -161 0 -205 -5z m223 -157 c2 -8 -6 -13
-22 -13 -28 0 -43 15 -24 23 20 8 41 3 46 -10z m77 -3 c16 -7 13 -9 -17 -9
-21 -1 -38 4 -38 9 0 12 27 12 55 0z"/>
<path d="M8975 6978 c-56 -29 -270 -247 -337 -343 -154 -221 -217 -379 -184
-459 16 -38 41 -56 81 -56 34 0 62 32 84 97 54 160 246 402 427 538 109 82
145 147 114 205 -22 42 -121 52 -185 18z"/>
<path d="M3105 6808 c-31 -17 -45 -39 -45 -74 0 -26 14 -48 75 -113 86 -94
146 -190 242 -387 74 -150 89 -172 140 -198 45 -23 80 -20 108 9 48 47 31 116
-72 308 -92 171 -160 273 -238 355 -90 96 -159 128 -210 100z"/>
<path d="M9065 6461 c-79 -34 -62 -151 21 -151 43 0 94 45 94 83 0 52 -64 89
-115 68z"/>
<path d="M4336 6395 c-47 -51 -104 -151 -111 -198 -16 -95 71 -74 148 35 80
113 92 151 59 181 -29 27 -61 20 -96 -18z"/>
<path d="M7902 6414 c-31 -21 -28 -61 8 -142 38 -82 74 -122 111 -122 31 0 39
15 39 69 0 54 -63 177 -100 196 -35 18 -31 18 -58 -1z"/>
<path d="M2965 6335 c-54 -53 -15 -135 64 -135 85 0 126 86 66 138 -37 31 -98
30 -130 -3z"/>
<path d="M4533 6338 c-31 -34 -80 -137 -88 -186 -5 -34 -3 -47 11 -63 24 -26
35 -24 71 14 66 67 113 206 83 242 -18 22 -53 18 -77 -7z"/>
<path d="M7757 6343 c-36 -36 55 -233 108 -233 22 0 45 29 45 57 0 28 -49 124
-83 161 -20 21 -56 29 -70 15z"/>
<path d="M8873 6250 c-27 -11 -43 -40 -43 -78 0 -81 129 -83 155 -2 8 27 -18
68 -51 80 -29 12 -32 12 -61 0z"/>
<path d="M3159 6151 c-34 -35 -37 -68 -9 -104 16 -20 29 -25 65 -25 45 0 73
18 60 38 -5 8 -11 7 -23 -2 -13 -11 -14 -11 -10 2 3 9 16 14 32 13 23 -2 26 2
26 33 0 24 -5 34 -15 34 -8 0 -15 6 -15 14 0 36 -73 34 -111 -3z"/>
<path d="M6856 4930 c-20 -18 -68 -75 -108 -128 -95 -128 -164 -192 -255 -238
-67 -34 -84 -39 -166 -42 -70 -3 -113 1 -180 17 -176 42 -308 124 -422 261
-66 80 -81 90 -103 68 -49 -49 70 -225 223 -327 174 -116 423 -169 590 -126
67 18 138 53 210 106 127 92 303 340 293 412 -5 34 -41 33 -82 -3z"/>
<path d="M10020 6290 c-14 -5 -19 -8 -12 -9 10 -1 10 -5 -2 -17 -18 -18 -21
-34 -5 -34 5 0 7 -4 4 -10 -3 -5 1 -10 10 -10 8 0 18 7 22 16 3 9 13 14 24 11
15 -4 18 0 17 19 -1 12 -4 21 -7 19 -2 -3 -9 1 -15 9 -7 9 -19 11 -36 6z"/>
<path d="M10030 6175 c0 -8 5 -15 10 -15 6 0 10 7 10 15 0 8 -4 15 -10 15 -5
0 -10 -7 -10 -15z"/>
<path d="M2147 6167 c-15 -10 -18 -38 -7 -67 2 -3 2 -8 1 -12 0 -4 9 -5 21 -3
12 3 29 -1 37 -7 13 -10 14 -10 4 2 -21 22 -15 40 12 40 14 0 25 5 25 10 0 6
-6 10 -13 10 -7 0 -23 9 -35 20 -25 24 -24 23 -45 7z"/>
<path d="M2047 6128 c4 -22 2 -34 -10 -43 -15 -11 -14 -13 7 -23 20 -9 25 -7
34 13 8 17 8 26 1 31 -6 3 -8 12 -6 18 3 7 -3 18 -14 24 -17 11 -18 9 -12 -20z"/>
<path d="M1990 6126 c0 -8 5 -18 10 -21 6 -3 10 -1 10 4 0 6 8 11 18 11 14 0
15 2 2 10 -22 14 -40 12 -40 -4z"/>
<path d="M2311 6047 c-11 -17 -11 -19 3 -14 13 5 14 2 5 -19 -7 -21 -5 -29 13
-45 13 -10 30 -18 38 -18 10 0 11 2 3 6 -20 7 -15 20 10 28 l22 7 -24 7 c-14
3 -26 12 -28 18 -3 9 4 10 26 3 38 -11 47 1 20 26 -29 26 -73 27 -88 1z"/>
<path d="M2035 6010 c-3 -5 -1 -10 4 -10 6 0 11 5 11 10 0 6 -2 10 -4 10 -3 0
-8 -4 -11 -10z"/>
<path d="M2068 6008 c20 -20 13 -30 -17 -23 -33 7 -49 -8 -29 -29 8 -8 21 -10
33 -5 37 14 47 11 39 -13 -6 -22 -6 -22 14 2 16 20 18 26 6 28 -8 2 -14 8 -14
13 0 12 -25 39 -36 39 -5 0 -3 -5 4 -12z"/>
<path d="M2052 5928 c6 -18 28 -21 28 -4 0 9 -7 16 -16 16 -9 0 -14 -5 -12
-12z"/>
<path d="M2392 5787 c18 -19 38 -22 38 -7 0 6 -4 10 -9 10 -5 0 -18 3 -28 7
-17 6 -17 6 -1 -10z"/>
<path d="M9235 5850 c3 -5 8 -10 11 -10 2 0 4 5 4 10 0 6 -5 10 -11 10 -5 0
-7 -4 -4 -10z"/>
<path d="M2042 5258 c-18 -18 -15 -26 11 -31 21 -3 21 -4 -7 -15 -24 -10 -26
-15 -15 -28 9 -11 14 -12 19 -3 6 8 9 8 14 0 4 -6 5 -14 3 -18 -3 -5 6 -8 19
-8 18 0 24 5 24 22 0 12 5 23 12 25 8 3 8 9 0 24 -6 10 -12 15 -12 9 0 -5 -7
1 -16 13 -17 25 -34 28 -52 10z"/>
<path d="M2080 5110 c0 -5 -6 -10 -14 -10 -17 0 -29 -27 -16 -35 6 -4 10 -14
10 -25 0 -10 7 -21 16 -24 22 -9 32 3 14 14 -13 8 -12 10 2 10 9 0 19 -6 21
-12 7 -16 46 30 47 53 0 9 -11 21 -25 27 -32 15 -55 15 -55 2z"/>
<path d="M2592 5095 c0 -16 2 -22 5 -12 2 9 2 23 0 30 -3 6 -5 -1 -5 -18z"/>
<path d="M3635 4900 c11 -7 26 -20 33 -28 10 -14 12 -13 12 6 0 12 -6 22 -14
22 -8 0 -23 3 -33 6 -15 5 -15 3 2 -6z"/>
<path d="M9685 4640 c-10 -11 -26 -20 -37 -20 -10 0 -18 -4 -18 -9 0 -9 34
-47 63 -70 15 -12 17 -12 11 3 -4 11 -2 16 6 14 6 -2 21 9 33 24 17 23 18 30
7 43 -26 31 -46 36 -65 15z"/>
<path d="M9540 4642 c-52 -8 -66 -52 -26 -81 17 -12 21 -12 32 3 8 12 19 16
32 12 11 -4 23 -2 27 4 3 6 11 7 17 4 6 -4 0 7 -12 24 -26 35 -35 39 -70 34z
m25 -32 c3 -5 1 -10 -4 -10 -6 0 -11 5 -11 10 0 6 2 10 4 10 3 0 8 -4 11 -10z"/>
<path d="M9625 4560 c3 -5 10 -10 16 -10 5 0 9 5 9 10 0 6 -7 10 -16 10 -8 0
-12 -4 -9 -10z"/>
<path d="M9524 4512 c4 -7 2 -19 -4 -27 -6 -8 -9 -19 -5 -25 4 -6 -7 -10 -30
-10 -20 0 -34 4 -31 9 8 12 -13 27 -46 35 -21 5 -28 2 -33 -14 -4 -11 -15 -20
-27 -20 -17 0 -18 -2 -8 -15 10 -12 10 -15 -1 -15 -20 0 34 -27 71 -35 26 -6
32 -4 37 14 6 22 18 22 66 3 36 -15 57 -15 57 -1 0 6 7 9 15 5 8 -3 15 -1 15
5 0 5 12 14 26 19 14 6 22 15 18 21 -3 6 -9 7 -13 3 -12 -17 -31 -14 -31 5 0
18 -25 36 -44 32 -4 -1 -15 4 -24 11 -13 11 -14 11 -8 0z m29 -77 c0 -6 -7
-11 -16 -13 -12 -3 -15 1 -11 13 7 17 25 17 27 0z"/>
<path d="M9615 4420 c3 -5 8 -10 11 -10 2 0 4 5 4 10 0 6 -5 10 -11 10 -5 0
-7 -4 -4 -10z"/>
<path d="M8368 4573 c-26 -7 -46 -45 -37 -70 10 -26 29 -39 38 -25 3 6 18 15
32 20 31 12 33 40 6 65 -11 9 -20 16 -21 16 -1 -1 -9 -3 -18 -6z"/>
<path d="M8348 4409 c-24 -18 -26 -23 -16 -49 5 -17 15 -30 21 -31 44 -4 54
-2 68 13 46 44 -21 105 -73 67z m27 -39 c-3 -5 -11 -10 -16 -10 -6 0 -7 5 -4
10 3 6 11 10 16 10 6 0 7 -4 4 -10z m35 -4 c0 -3 -4 -8 -10 -11 -5 -3 -10 -1
-10 4 0 6 5 11 10 11 6 0 10 -2 10 -4z"/>
<path d="M4008 4454 c-14 -8 -25 -19 -24 -26 11 -52 45 -65 64 -23 6 14 16 25
22 25 18 0 10 17 -13 27 -17 8 -30 7 -49 -3z"/>
<path d="M4135 2846 c-123 -39 -190 -103 -205 -198 -40 -251 -237 -1082 -293
-1233 -25 -69 -30 -138 -14 -178 18 -42 42 -57 92 -57 72 0 121 44 155 143 19
53 87 310 112 421 l13 59 70 2 c39 1 94 6 123 10 l52 8 0 -35 c0 -48 35 -238
71 -390 29 -120 33 -129 71 -164 37 -33 44 -36 86 -31 38 4 53 13 83 45 52 56
57 93 26 195 -40 129 -55 185 -77 292 -11 55 -24 115 -29 133 -9 31 -8 33 27
51 60 31 170 128 215 189 56 77 103 173 123 252 24 93 15 230 -19 296 -79 153
-200 204 -481 203 -100 0 -176 -5 -201 -13z m175 -266 c136 -13 177 -25 217
-65 30 -30 33 -38 33 -97 0 -106 -61 -200 -176 -271 -75 -46 -249 -88 -308
-73 l-23 6 17 87 c10 49 28 151 39 228 12 77 24 155 27 173 5 32 7 34 37 28
18 -3 79 -10 137 -16z"/>
<path d="M2415 2826 c-77 -24 -131 -59 -200 -130 -202 -204 -326 -506 -410
-991 -14 -82 -33 -193 -42 -245 -31 -176 -18 -231 62 -258 35 -11 43 -10 84
10 57 29 102 96 104 158 1 30 -3 45 -12 48 -10 3 -12 0 -8 -12 6 -15 3 -17
-22 -11 -17 4 -38 1 -50 -7 -23 -14 -41 -4 -23 14 10 10 28 14 70 17 6 1 12 8
12 16 0 18 26 20 33 3 12 -32 27 20 58 197 18 105 33 202 33 216 1 24 3 25 36
18 47 -11 246 -11 295 1 22 5 41 7 43 5 4 -4 -13 -93 -64 -332 -19 -89 -34
-189 -34 -223 0 -57 3 -65 34 -96 40 -40 90 -45 145 -16 64 34 91 87 127 249
129 571 163 846 130 1048 -28 168 -85 262 -191 311 -57 27 -144 31 -210 10z
m57 -278 c41 -32 67 -218 51 -368 l-5 -45 -164 0 -165 -1 6 26 c30 122 179
370 236 393 21 8 24 8 41 -5z m-494 -590 c-3 -7 -13 -15 -24 -17 -16 -3 -17
-1 -5 13 16 19 34 21 29 4z m577 -434 c35 -23 31 -38 -5 -19 -16 9 -30 20 -30
25 0 14 7 13 35 -6z m-591 -83 c3 -5 -1 -11 -9 -15 -15 -6 -29 7 -18 18 9 9
21 8 27 -3z m516 -37 c0 -2 -8 -13 -17 -24 -21 -24 -58 -28 -49 -4 3 9 6 19 6
23 0 5 14 8 30 9 17 0 30 -1 30 -4z m-625 -15 c11 -17 -1 -21 -15 -4 -8 9 -8
15 -2 15 6 0 14 -5 17 -11z"/>
<path d="M5514 2830 c-112 -23 -267 -139 -355 -263 -66 -93 -152 -272 -183
-381 -66 -228 -87 -521 -48 -679 36 -144 122 -246 221 -262 20 -4 53 -13 73
-22 59 -25 133 -14 235 37 118 58 248 186 310 305 49 94 89 200 108 290 8 36
22 95 30 133 21 90 31 403 16 500 -23 147 -90 261 -188 319 -50 29 -145 39
-219 23z m75 -285 c51 -59 66 -127 66 -310 0 -226 -40 -427 -114 -573 -57
-113 -126 -172 -245 -208 l-59 -19 -34 40 c-51 59 -67 126 -67 285 1 368 153
721 346 805 51 22 73 18 107 -20z m-394 -246 c-8 -12 -45 -12 -45 0 0 10 30
20 43 14 4 -3 5 -9 2 -14z m-195 -239 c0 -5 -4 -10 -10 -10 -5 0 -10 5 -10 10
0 6 5 10 10 10 6 0 10 -4 10 -10z m448 -639 c26 -16 -18 -22 -46 -6 l-27 14
30 0 c17 1 36 -3 43 -8z"/>
<path d="M6529 2816 c-3 -3 -44 -7 -92 -9 -146 -5 -178 -49 -202 -279 -17
-163 -42 -311 -85 -513 -136 -635 -146 -698 -115 -742 29 -42 132 -63 308 -63
154 0 293 12 332 30 11 4 41 16 66 25 91 33 218 159 219 218 0 9 4 17 10 17 5
0 17 25 26 56 20 71 21 214 1 269 -30 82 -59 137 -90 172 -18 20 -27 38 -21
40 36 12 151 116 200 180 67 87 97 194 82 290 -27 172 -188 278 -449 298 -46
3 -107 8 -134 11 -28 3 -53 3 -56 0z m73 -247 c147 -25 185 -36 235 -65 43
-25 73 -67 73 -102 0 -28 -54 -106 -95 -137 -47 -37 -122 -71 -195 -90 -74
-19 -240 -32 -240 -18 0 13 79 414 85 431 3 7 9 10 15 7 6 -3 61 -15 122 -26z
m323 -269 c3 -5 -1 -10 -10 -10 -9 0 -13 5 -10 10 3 6 8 10 10 10 2 0 7 -4 10
-10z m-155 -260 c0 -5 -4 -10 -10 -10 -5 0 -10 5 -10 10 0 6 5 10 10 10 6 0
10 -4 10 -10z m-35 -50 c3 -5 -1 -10 -9 -10 -9 0 -16 5 -16 10 0 6 4 10 9 10
6 0 13 -4 16 -10z m-150 -91 c126 -42 174 -100 183 -221 4 -55 1 -74 -18 -113
-30 -62 -87 -89 -225 -105 -55 -6 -116 -13 -135 -15 -19 -3 -54 -7 -77 -10
-32 -5 -43 -3 -43 7 0 7 17 118 37 246 l38 232 90 0 c63 0 108 -7 150 -21z
m235 -3 c0 -3 -4 -8 -10 -11 -5 -3 -10 -1 -10 4 0 6 5 11 10 11 6 0 10 -2 10
-4z"/>
<path d="M7715 2814 c-194 -19 -226 -30 -266 -85 -27 -39 -191 -842 -175 -860
8 -9 8 -10 0 -6 -21 12 -114 -422 -114 -529 0 -57 2 -64 19 -64 11 0 23 -4 26
-10 3 -5 20 -7 37 -3 27 5 30 4 24 -14 -10 -31 99 -53 265 -53 240 0 366 46
499 179 86 87 121 149 146 259 19 87 12 154 -26 235 -26 54 -95 136 -134 156
l-26 14 59 34 c69 39 179 151 208 214 54 116 57 257 8 348 -52 94 -156 155
-297 172 -110 13 -204 18 -253 13z m179 -264 c70 -15 109 -36 129 -69 38 -65
11 -140 -69 -191 -74 -46 -373 -107 -374 -76 -1 29 55 352 62 356 10 8 191 -7
252 -20z m-464 -484 c0 -2 -7 -7 -16 -10 -8 -3 -12 -2 -9 4 6 10 25 14 25 6z
m292 -172 c111 -48 178 -95 203 -145 35 -66 6 -169 -63 -230 -66 -59 -123 -77
-280 -89 -78 -7 -148 -10 -156 -7 -10 4 -4 48 29 204 24 109 48 224 55 256
l11 57 47 0 c34 0 77 -13 154 -46z m-432 -399 c0 -8 -4 -15 -10 -15 -5 0 -10
7 -10 15 0 8 5 15 10 15 6 0 10 -7 10 -15z m587 -31 c-3 -3 -12 -4 -19 -1 -8
3 -5 6 6 6 11 1 17 -2 13 -5z m-567 -179 c0 -17 -2 -18 -25 -9 -13 5 -14 8 -3
15 19 13 28 11 28 -6z m217 -67 c-3 -8 -6 -5 -6 6 -1 11 2 17 5 13 3 -3 4 -12
1 -19z"/>
<path d="M9951 2809 c-169 -9 -185 -12 -230 -46 -45 -34 -56 -65 -90 -250 -16
-87 -57 -277 -91 -423 -78 -337 -128 -599 -136 -720 -6 -93 -6 -97 19 -125 23
-28 32 -31 114 -37 48 -4 186 -10 305 -14 261 -8 289 -3 348 64 34 39 40 51
40 92 0 38 -5 51 -30 75 -25 24 -41 30 -90 33 -51 4 -64 1 -76 -14 -9 -11 -13
-14 -10 -8 10 19 -12 21 -194 14 -96 -4 -176 -6 -178 -4 -2 1 5 47 17 101 11
54 25 127 31 163 6 36 16 89 21 119 l11 54 247 -5 c265 -6 288 -3 339 45 59
55 68 124 24 176 -38 45 -90 52 -354 45 -203 -6 -208 -5 -208 14 0 17 52 316
65 378 10 45 56 48 425 28 143 -7 179 2 230 58 56 60 52 132 -7 173 -37 25
-40 25 -218 24 -99 -1 -245 -6 -324 -10z m119 -119 c0 -5 -4 -10 -10 -10 -5 0
-10 -5 -10 -11 0 -6 9 -9 20 -6 11 3 18 1 14 -4 -3 -5 0 -9 7 -9 7 0 10 -2 7
-5 -3 -3 -19 -2 -36 1 -33 7 -40 22 -20 42 15 15 28 16 28 2z m100 -34 c0 -2
-7 -9 -15 -16 -12 -10 -15 -10 -15 4 0 9 7 16 15 16 8 0 15 -2 15 -4z m-315
-26 c3 -5 1 -10 -4 -10 -6 0 -11 5 -11 10 0 6 2 10 4 10 3 0 8 -4 11 -10z
m-195 -590 c0 -5 -7 -10 -16 -10 -8 0 -12 5 -9 10 3 6 10 10 16 10 5 0 9 -4 9
-10z m294 -71 c-30 -12 -37 -10 -24 5 6 8 19 12 27 9 14 -6 14 -8 -3 -14z m66
-3 c0 -2 -7 -9 -15 -16 -12 -10 -15 -10 -15 4 0 9 7 16 15 16 8 0 15 -2 15 -4z"/>
<path d="M8685 2800 c-104 -9 -148 -24 -180 -61 -29 -35 -32 -65 -9 -98 24
-34 68 -49 167 -57 l87 -7 -6 -36 c-3 -20 -28 -151 -55 -291 -27 -140 -65
-343 -85 -450 -19 -107 -42 -235 -52 -285 l-17 -89 -48 3 c-77 4 -143 -16
-188 -59 -33 -31 -39 -43 -39 -79 0 -32 6 -47 25 -65 23 -21 38 -24 173 -31
81 -4 228 -7 327 -6 154 2 186 5 225 22 89 39 126 99 96 157 -25 48 -72 63
-184 61 -89 -1 -97 0 -95 17 1 11 23 129 48 264 25 135 71 380 101 545 30 164
57 301 59 303 2 2 37 5 78 7 133 5 247 62 247 124 0 36 -43 77 -109 101 -46
18 -75 20 -269 19 -119 -1 -253 -5 -297 -9z"/>
<path d="M3131 1505 c-47 -15 -104 -63 -128 -109 -8 -16 -15 -49 -16 -74 0
-40 4 -49 38 -80 35 -33 41 -34 90 -29 121 12 195 75 197 165 3 103 -77 158
-181 127z"/>
</g>
</svg>
